<svg width="800" height="312" viewBox="0 0 800 312" fill="none" xmlns="http://www.w3.org/2000/svg">
<g filter="url(#filter0_d_917_2571)">
<rect width="787.034" height="298.622" rx="24.7885" transform="matrix(1 0 0 -1 0 298.622)" fill="url(#paint0_linear_917_2571)" fill-opacity="0.4" shape-rendering="crispEdges"/>
<rect x="0.38732" y="-0.38732" width="786.26" height="297.847" rx="24.4012" transform="matrix(1 0 0 -1 0 297.847)" stroke="#686868" stroke-opacity="0.6" stroke-width="0.77464" shape-rendering="crispEdges"/>
<path opacity="0.6" d="M95.4356 219.313H97.6231L101.998 226.676H102.183L106.558 219.313H108.745L103.046 228.586V235.087H101.135V228.586L95.4356 219.313ZM114.536 235.334C113.468 235.334 112.531 235.079 111.725 234.571C110.924 234.063 110.297 233.351 109.845 232.437C109.399 231.523 109.175 230.455 109.175 229.233C109.175 228.001 109.399 226.925 109.845 226.006C110.297 225.087 110.924 224.373 111.725 223.865C112.531 223.356 113.468 223.102 114.536 223.102C115.604 223.102 116.539 223.356 117.34 223.865C118.146 224.373 118.772 225.087 119.219 226.006C119.671 226.925 119.897 228.001 119.897 229.233C119.897 230.455 119.671 231.523 119.219 232.437C118.772 233.351 118.146 234.063 117.34 234.571C116.539 235.079 115.604 235.334 114.536 235.334ZM114.536 233.701C115.347 233.701 116.015 233.493 116.539 233.077C117.063 232.661 117.45 232.114 117.702 231.436C117.953 230.758 118.079 230.024 118.079 229.233C118.079 228.442 117.953 227.706 117.702 227.023C117.45 226.34 117.063 225.788 116.539 225.367C116.015 224.946 115.347 224.735 114.536 224.735C113.725 224.735 113.057 224.946 112.534 225.367C112.01 225.788 111.622 226.34 111.37 227.023C111.119 227.706 110.993 228.442 110.993 229.233C110.993 230.024 111.119 230.758 111.37 231.436C111.622 232.114 112.01 232.661 112.534 233.077C113.057 233.493 113.725 233.701 114.536 233.701ZM130.562 230.25V223.256H132.379V235.087H130.562V233.084H130.438C130.161 233.685 129.73 234.196 129.144 234.617C128.559 235.033 127.819 235.241 126.926 235.241C126.187 235.241 125.529 235.079 124.954 234.756C124.379 234.427 123.927 233.934 123.599 233.277C123.27 232.615 123.106 231.78 123.106 230.774V223.256H124.923V230.65C124.923 231.513 125.165 232.201 125.647 232.715C126.135 233.228 126.757 233.485 127.511 233.485C127.963 233.485 128.423 233.369 128.89 233.138C129.363 232.907 129.758 232.553 130.076 232.075C130.4 231.598 130.562 230.989 130.562 230.25ZM136.142 235.087V223.256H137.899V225.043H138.022C138.237 224.458 138.628 223.983 139.193 223.618C139.757 223.254 140.394 223.071 141.103 223.071C141.236 223.071 141.403 223.074 141.603 223.079C141.804 223.084 141.955 223.092 142.058 223.102V224.951C141.996 224.935 141.855 224.912 141.634 224.881C141.419 224.845 141.19 224.827 140.949 224.827C140.374 224.827 139.86 224.948 139.408 225.189C138.962 225.426 138.607 225.754 138.345 226.175C138.089 226.591 137.96 227.066 137.96 227.6V235.087H136.142ZM151.181 235.087V223.256H152.998V235.087H151.181ZM152.105 221.284C151.75 221.284 151.445 221.164 151.188 220.922C150.937 220.681 150.811 220.391 150.811 220.052C150.811 219.713 150.937 219.423 151.188 219.182C151.445 218.94 151.75 218.82 152.105 218.82C152.459 218.82 152.762 218.94 153.014 219.182C153.27 219.423 153.399 219.713 153.399 220.052C153.399 220.391 153.27 220.681 153.014 220.922C152.762 221.164 152.459 221.284 152.105 221.284ZM161.229 235.334C160.243 235.334 159.373 235.084 158.618 234.586C157.863 234.083 157.272 233.375 156.846 232.461C156.42 231.541 156.207 230.455 156.207 229.202C156.207 227.96 156.42 226.881 156.846 225.967C157.272 225.053 157.865 224.347 158.625 223.849C159.385 223.351 160.263 223.102 161.26 223.102C162.03 223.102 162.638 223.231 163.085 223.487C163.537 223.739 163.881 224.026 164.117 224.35C164.359 224.668 164.546 224.93 164.679 225.136H164.834V219.313H166.651V235.087H164.895V233.269H164.679C164.546 233.485 164.356 233.757 164.11 234.086C163.863 234.409 163.511 234.699 163.054 234.956C162.597 235.208 161.989 235.334 161.229 235.334ZM161.475 233.701C162.204 233.701 162.821 233.511 163.324 233.131C163.827 232.746 164.21 232.214 164.472 231.536C164.733 230.853 164.864 230.065 164.864 229.172C164.864 228.288 164.736 227.516 164.479 226.853C164.222 226.186 163.842 225.667 163.339 225.297C162.836 224.922 162.215 224.735 161.475 224.735C160.705 224.735 160.063 224.933 159.55 225.328C159.041 225.718 158.659 226.25 158.402 226.923C158.15 227.59 158.025 228.34 158.025 229.172C158.025 230.014 158.153 230.779 158.41 231.467C158.672 232.15 159.057 232.694 159.565 233.1C160.079 233.5 160.715 233.701 161.475 233.701ZM175.627 235.334C174.487 235.334 173.504 235.082 172.677 234.579C171.855 234.07 171.221 233.362 170.775 232.453C170.333 231.539 170.112 230.476 170.112 229.264C170.112 228.052 170.333 226.984 170.775 226.06C171.221 225.13 171.843 224.406 172.639 223.888C173.44 223.364 174.374 223.102 175.442 223.102C176.058 223.102 176.667 223.205 177.268 223.41C177.868 223.616 178.415 223.949 178.908 224.412C179.401 224.869 179.794 225.474 180.087 226.229C180.379 226.984 180.526 227.914 180.526 229.018V229.788H171.406V228.217H178.677C178.677 227.549 178.544 226.953 178.277 226.43C178.015 225.906 177.64 225.492 177.152 225.189C176.669 224.887 176.099 224.735 175.442 224.735C174.718 224.735 174.092 224.915 173.563 225.274C173.039 225.629 172.636 226.091 172.354 226.661C172.071 227.231 171.93 227.842 171.93 228.494V229.541C171.93 230.435 172.084 231.192 172.392 231.814C172.705 232.43 173.139 232.9 173.694 233.223C174.248 233.541 174.893 233.701 175.627 233.701C176.105 233.701 176.536 233.634 176.921 233.5C177.311 233.362 177.648 233.156 177.93 232.884C178.212 232.607 178.431 232.263 178.585 231.852L180.341 232.345C180.156 232.941 179.845 233.464 179.409 233.916C178.972 234.363 178.433 234.712 177.791 234.964C177.15 235.21 176.428 235.334 175.627 235.334ZM185.542 227.97V235.087H183.725V223.256H185.481V225.105H185.635C185.912 224.504 186.333 224.021 186.898 223.657C187.463 223.287 188.192 223.102 189.086 223.102C189.887 223.102 190.588 223.266 191.188 223.595C191.789 223.919 192.256 224.412 192.59 225.074C192.924 225.731 193.091 226.563 193.091 227.57V235.087H191.273V227.693C191.273 226.763 191.032 226.039 190.549 225.521C190.066 224.997 189.404 224.735 188.562 224.735C187.982 224.735 187.463 224.861 187.006 225.112C186.554 225.364 186.197 225.731 185.935 226.214C185.673 226.697 185.542 227.282 185.542 227.97ZM201.991 223.256V224.797H195.86V223.256H201.991ZM197.647 220.422H199.465V231.698C199.465 232.212 199.54 232.597 199.688 232.853C199.843 233.105 200.038 233.274 200.274 233.362C200.515 233.444 200.769 233.485 201.036 233.485C201.237 233.485 201.401 233.475 201.529 233.454C201.658 233.428 201.76 233.408 201.837 233.393L202.207 235.025C202.084 235.072 201.912 235.118 201.691 235.164C201.47 235.215 201.19 235.241 200.852 235.241C200.338 235.241 199.835 235.131 199.342 234.91C198.854 234.689 198.448 234.353 198.125 233.901C197.807 233.449 197.647 232.879 197.647 232.191V220.422ZM205.16 235.087V223.256H206.977V235.087H205.16ZM206.084 221.284C205.73 221.284 205.424 221.164 205.167 220.922C204.916 220.681 204.79 220.391 204.79 220.052C204.79 219.713 204.916 219.423 205.167 219.182C205.424 218.94 205.73 218.82 206.084 218.82C206.438 218.82 206.741 218.94 206.993 219.182C207.25 219.423 207.378 219.713 207.378 220.052C207.378 220.391 207.25 220.681 206.993 220.922C206.741 221.164 206.438 221.284 206.084 221.284ZM215.886 223.256V224.797H209.755V223.256H215.886ZM211.542 220.422H213.359V231.698C213.359 232.212 213.434 232.597 213.583 232.853C213.737 233.105 213.932 233.274 214.168 233.362C214.409 233.444 214.664 233.485 214.931 233.485C215.131 233.485 215.295 233.475 215.424 233.454C215.552 233.428 215.655 233.408 215.732 233.393L216.101 235.025C215.978 235.072 215.806 235.118 215.585 235.164C215.365 235.215 215.085 235.241 214.746 235.241C214.232 235.241 213.729 235.131 213.236 234.91C212.748 234.689 212.343 234.353 212.019 233.901C211.701 233.449 211.542 232.879 211.542 232.191V220.422ZM220.225 239.524C219.917 239.524 219.642 239.498 219.4 239.447C219.159 239.4 218.992 239.354 218.9 239.308L219.362 237.706C219.804 237.819 220.194 237.86 220.533 237.829C220.872 237.798 221.172 237.647 221.434 237.375C221.701 237.108 221.945 236.674 222.166 236.073L222.505 235.149L218.13 223.256H220.101L223.367 232.684H223.49L226.756 223.256H228.728L223.706 236.812C223.48 237.423 223.2 237.929 222.867 238.33C222.533 238.735 222.145 239.036 221.703 239.231C221.267 239.426 220.774 239.524 220.225 239.524ZM247.769 223.256L243.395 235.087H241.546L237.171 223.256H239.143L242.409 232.684H242.532L245.798 223.256H247.769ZM255.139 235.334C253.999 235.334 253.016 235.082 252.189 234.579C251.368 234.07 250.734 233.362 250.287 232.453C249.845 231.539 249.624 230.476 249.624 229.264C249.624 228.052 249.845 226.984 250.287 226.06C250.734 225.13 251.355 224.406 252.151 223.888C252.952 223.364 253.886 223.102 254.954 223.102C255.571 223.102 256.179 223.205 256.78 223.41C257.381 223.616 257.928 223.949 258.42 224.412C258.913 224.869 259.306 225.474 259.599 226.229C259.892 226.984 260.038 227.914 260.038 229.018V229.788H250.918V228.217H258.189C258.189 227.549 258.056 226.953 257.789 226.43C257.527 225.906 257.152 225.492 256.664 225.189C256.182 224.887 255.612 224.735 254.954 224.735C254.23 224.735 253.604 224.915 253.075 225.274C252.551 225.629 252.148 226.091 251.866 226.661C251.583 227.231 251.442 227.842 251.442 228.494V229.541C251.442 230.435 251.596 231.192 251.904 231.814C252.217 232.43 252.651 232.9 253.206 233.223C253.761 233.541 254.405 233.701 255.139 233.701C255.617 233.701 256.048 233.634 256.433 233.5C256.824 233.362 257.16 233.156 257.442 232.884C257.725 232.607 257.943 232.263 258.097 231.852L259.853 232.345C259.668 232.941 259.358 233.464 258.921 233.916C258.485 234.363 257.946 234.712 257.304 234.964C256.662 235.21 255.94 235.334 255.139 235.334ZM263.237 235.087V223.256H264.993V225.043H265.116C265.332 224.458 265.722 223.983 266.287 223.618C266.852 223.254 267.489 223.071 268.197 223.071C268.331 223.071 268.498 223.074 268.698 223.079C268.898 223.084 269.05 223.092 269.152 223.102V224.951C269.091 224.935 268.95 224.912 268.729 224.881C268.513 224.845 268.285 224.827 268.043 224.827C267.468 224.827 266.955 224.948 266.503 225.189C266.056 225.426 265.702 225.754 265.44 226.175C265.183 226.591 265.055 227.066 265.055 227.6V235.087H263.237ZM271.741 235.087V223.256H273.559V235.087H271.741ZM272.665 221.284C272.311 221.284 272.005 221.164 271.749 220.922C271.497 220.681 271.371 220.391 271.371 220.052C271.371 219.713 271.497 219.423 271.749 219.182C272.005 218.94 272.311 218.82 272.665 218.82C273.02 218.82 273.322 218.94 273.574 219.182C273.831 219.423 273.959 219.713 273.959 220.052C273.959 220.391 273.831 220.681 273.574 220.922C273.322 221.164 273.02 221.284 272.665 221.284ZM282.59 223.256V224.797H276.213V223.256H282.59ZM278.123 235.087V221.623C278.123 220.945 278.282 220.381 278.6 219.929C278.919 219.477 279.332 219.138 279.841 218.912C280.349 218.686 280.885 218.573 281.45 218.573C281.897 218.573 282.262 218.609 282.544 218.681C282.826 218.753 283.037 218.82 283.176 218.881L282.652 220.453C282.559 220.422 282.431 220.383 282.267 220.337C282.108 220.291 281.897 220.268 281.635 220.268C281.034 220.268 280.6 220.419 280.333 220.722C280.072 221.025 279.941 221.469 279.941 222.055V235.087H278.123ZM285.572 235.087V223.256H287.389V235.087H285.572ZM286.496 221.284C286.142 221.284 285.836 221.164 285.579 220.922C285.328 220.681 285.202 220.391 285.202 220.052C285.202 219.713 285.328 219.423 285.579 219.182C285.836 218.94 286.142 218.82 286.496 218.82C286.85 218.82 287.153 218.94 287.405 219.182C287.662 219.423 287.79 219.713 287.79 220.052C287.79 220.391 287.662 220.681 287.405 220.922C287.153 221.164 286.85 221.284 286.496 221.284ZM295.959 235.334C294.85 235.334 293.895 235.072 293.094 234.548C292.293 234.024 291.676 233.303 291.245 232.384C290.814 231.464 290.598 230.414 290.598 229.233C290.598 228.032 290.819 226.971 291.26 226.052C291.707 225.128 292.328 224.406 293.124 223.888C293.925 223.364 294.86 223.102 295.928 223.102C296.76 223.102 297.51 223.256 298.177 223.564C298.845 223.872 299.392 224.304 299.818 224.858C300.244 225.413 300.508 226.06 300.611 226.799H298.793C298.655 226.26 298.347 225.783 297.869 225.367C297.397 224.946 296.76 224.735 295.959 224.735C295.25 224.735 294.629 224.92 294.095 225.29C293.566 225.654 293.153 226.17 292.855 226.838C292.562 227.5 292.416 228.278 292.416 229.172C292.416 230.086 292.56 230.882 292.847 231.559C293.14 232.237 293.551 232.764 294.079 233.138C294.613 233.513 295.24 233.701 295.959 233.701C296.431 233.701 296.86 233.618 297.245 233.454C297.63 233.29 297.956 233.054 298.223 232.746C298.49 232.437 298.68 232.068 298.793 231.636H300.611C300.508 232.335 300.254 232.964 299.849 233.523C299.448 234.078 298.917 234.52 298.254 234.848C297.597 235.172 296.832 235.334 295.959 235.334ZM307.184 235.364C306.434 235.364 305.754 235.223 305.143 234.941C304.532 234.653 304.046 234.24 303.687 233.701C303.327 233.156 303.148 232.499 303.148 231.729C303.148 231.051 303.281 230.502 303.548 230.081C303.815 229.654 304.172 229.321 304.619 229.079C305.066 228.838 305.558 228.658 306.098 228.54C306.642 228.417 307.189 228.319 307.738 228.247C308.457 228.155 309.04 228.086 309.487 228.039C309.939 227.988 310.267 227.903 310.473 227.785C310.683 227.667 310.788 227.462 310.788 227.169V227.107C310.788 226.347 310.58 225.757 310.165 225.336C309.754 224.915 309.13 224.704 308.293 224.704C307.425 224.704 306.745 224.894 306.252 225.274C305.759 225.654 305.412 226.06 305.212 226.491L303.487 225.875C303.795 225.156 304.205 224.596 304.719 224.196C305.238 223.79 305.802 223.508 306.413 223.349C307.03 223.184 307.636 223.102 308.231 223.102C308.611 223.102 309.048 223.148 309.541 223.241C310.039 223.328 310.519 223.51 310.981 223.788C311.448 224.065 311.836 224.483 312.144 225.043C312.452 225.603 312.606 226.353 312.606 227.292V235.087H310.788V233.485H310.696C310.573 233.742 310.367 234.016 310.08 234.309C309.792 234.602 309.41 234.851 308.932 235.056C308.455 235.262 307.872 235.364 307.184 235.364ZM307.461 233.731C308.18 233.731 308.786 233.59 309.279 233.308C309.777 233.025 310.152 232.661 310.403 232.214C310.66 231.767 310.788 231.297 310.788 230.805V229.141C310.711 229.233 310.542 229.318 310.28 229.395C310.023 229.467 309.725 229.531 309.387 229.588C309.053 229.639 308.727 229.685 308.408 229.726C308.095 229.762 307.841 229.793 307.646 229.819C307.173 229.88 306.732 229.98 306.321 230.119C305.915 230.253 305.587 230.455 305.335 230.728C305.089 230.995 304.965 231.359 304.965 231.821C304.965 232.453 305.199 232.93 305.666 233.254C306.139 233.572 306.737 233.731 307.461 233.731ZM321.503 223.256V224.797H315.372V223.256H321.503ZM317.159 220.422H318.977V231.698C318.977 232.212 319.051 232.597 319.2 232.853C319.354 233.105 319.549 233.274 319.785 233.362C320.027 233.444 320.281 233.485 320.548 233.485C320.748 233.485 320.912 233.475 321.041 233.454C321.169 233.428 321.272 233.408 321.349 233.393L321.719 235.025C321.595 235.072 321.423 235.118 321.203 235.164C320.982 235.215 320.702 235.241 320.363 235.241C319.85 235.241 319.346 235.131 318.853 234.91C318.366 234.689 317.96 234.353 317.636 233.901C317.318 233.449 317.159 232.879 317.159 232.191V220.422ZM324.671 235.087V223.256H326.489V235.087H324.671ZM325.595 221.284C325.241 221.284 324.936 221.164 324.679 220.922C324.427 220.681 324.301 220.391 324.301 220.052C324.301 219.713 324.427 219.423 324.679 219.182C324.936 218.94 325.241 218.82 325.595 218.82C325.95 218.82 326.253 218.94 326.504 219.182C326.761 219.423 326.889 219.713 326.889 220.052C326.889 220.391 326.761 220.681 326.504 220.922C326.253 221.164 325.95 221.284 325.595 221.284ZM335.058 235.334C333.99 235.334 333.053 235.079 332.247 234.571C331.446 234.063 330.819 233.351 330.368 232.437C329.921 231.523 329.697 230.455 329.697 229.233C329.697 228.001 329.921 226.925 330.368 226.006C330.819 225.087 331.446 224.373 332.247 223.865C333.053 223.356 333.99 223.102 335.058 223.102C336.126 223.102 337.061 223.356 337.862 223.865C338.668 224.373 339.295 225.087 339.741 226.006C340.193 226.925 340.419 228.001 340.419 229.233C340.419 230.455 340.193 231.523 339.741 232.437C339.295 233.351 338.668 234.063 337.862 234.571C337.061 235.079 336.126 235.334 335.058 235.334ZM335.058 233.701C335.87 233.701 336.537 233.493 337.061 233.077C337.585 232.661 337.972 232.114 338.224 231.436C338.476 230.758 338.601 230.024 338.601 229.233C338.601 228.442 338.476 227.706 338.224 227.023C337.972 226.34 337.585 225.788 337.061 225.367C336.537 224.946 335.87 224.735 335.058 224.735C334.247 224.735 333.579 224.946 333.056 225.367C332.532 225.788 332.144 226.34 331.893 227.023C331.641 227.706 331.515 228.442 331.515 229.233C331.515 230.024 331.641 230.758 331.893 231.436C332.144 232.114 332.532 232.661 333.056 233.077C333.579 233.493 334.247 233.701 335.058 233.701ZM345.446 227.97V235.087H343.628V223.256H345.384V225.105H345.538C345.815 224.504 346.236 224.021 346.801 223.657C347.366 223.287 348.095 223.102 348.989 223.102C349.79 223.102 350.491 223.266 351.091 223.595C351.692 223.919 352.159 224.412 352.493 225.074C352.827 225.731 352.994 226.563 352.994 227.57V235.087H351.176V227.693C351.176 226.763 350.935 226.039 350.452 225.521C349.969 224.997 349.307 224.735 348.465 224.735C347.885 224.735 347.366 224.861 346.909 225.112C346.457 225.364 346.1 225.731 345.838 226.214C345.576 226.697 345.446 227.282 345.446 227.97ZM363.283 235.087V223.256H365.101V235.087H363.283ZM364.208 221.284C363.853 221.284 363.548 221.164 363.291 220.922C363.04 220.681 362.914 220.391 362.914 220.052C362.914 219.713 363.04 219.423 363.291 219.182C363.548 218.94 363.853 218.82 364.208 218.82C364.562 218.82 364.865 218.94 365.117 219.182C365.373 219.423 365.502 219.713 365.502 220.052C365.502 220.391 365.373 220.681 365.117 220.922C364.865 221.164 364.562 221.284 364.208 221.284ZM377.245 225.906L375.612 226.368C375.509 226.096 375.357 225.831 375.157 225.575C374.962 225.313 374.695 225.097 374.356 224.928C374.017 224.758 373.583 224.673 373.054 224.673C372.33 224.673 371.727 224.84 371.244 225.174C370.767 225.503 370.528 225.921 370.528 226.43C370.528 226.881 370.692 227.238 371.021 227.5C371.35 227.762 371.863 227.98 372.561 228.155L374.318 228.586C375.375 228.843 376.164 229.236 376.682 229.765C377.201 230.288 377.46 230.964 377.46 231.79C377.46 232.468 377.265 233.074 376.875 233.608C376.49 234.142 375.951 234.563 375.257 234.871C374.564 235.179 373.758 235.334 372.839 235.334C371.632 235.334 370.633 235.072 369.843 234.548C369.052 234.024 368.551 233.259 368.341 232.253L370.066 231.821C370.23 232.458 370.541 232.936 370.998 233.254C371.46 233.572 372.063 233.731 372.808 233.731C373.655 233.731 374.328 233.552 374.826 233.192C375.329 232.828 375.581 232.391 375.581 231.883C375.581 231.472 375.437 231.128 375.149 230.851C374.862 230.568 374.42 230.358 373.825 230.219L371.853 229.757C370.769 229.5 369.973 229.102 369.465 228.563C368.962 228.019 368.71 227.338 368.71 226.522C368.71 225.854 368.898 225.264 369.273 224.75C369.653 224.237 370.169 223.834 370.821 223.541C371.478 223.248 372.223 223.102 373.054 223.102C374.225 223.102 375.144 223.359 375.812 223.872C376.485 224.386 376.962 225.064 377.245 225.906ZM391.971 235.334C390.862 235.334 389.906 235.072 389.105 234.548C388.304 234.024 387.688 233.303 387.257 232.384C386.825 231.464 386.61 230.414 386.61 229.233C386.61 228.032 386.831 226.971 387.272 226.052C387.719 225.128 388.34 224.406 389.136 223.888C389.937 223.364 390.872 223.102 391.94 223.102C392.772 223.102 393.521 223.256 394.189 223.564C394.857 223.872 395.403 224.304 395.83 224.858C396.256 225.413 396.52 226.06 396.623 226.799H394.805C394.667 226.26 394.358 225.783 393.881 225.367C393.408 224.946 392.772 224.735 391.971 224.735C391.262 224.735 390.641 224.92 390.107 225.29C389.578 225.654 389.164 226.17 388.867 226.838C388.574 227.5 388.428 228.278 388.428 229.172C388.428 230.086 388.571 230.882 388.859 231.559C389.152 232.237 389.562 232.764 390.091 233.138C390.625 233.513 391.252 233.701 391.971 233.701C392.443 233.701 392.872 233.618 393.257 233.454C393.642 233.29 393.968 233.054 394.235 232.746C394.502 232.437 394.692 232.068 394.805 231.636H396.623C396.52 232.335 396.266 232.964 395.86 233.523C395.46 234.078 394.928 234.52 394.266 234.848C393.609 235.172 392.844 235.334 391.971 235.334ZM407.17 230.25V223.256H408.988V235.087H407.17V233.084H407.047C406.769 233.685 406.338 234.196 405.753 234.617C405.167 235.033 404.428 235.241 403.534 235.241C402.795 235.241 402.138 235.079 401.563 234.756C400.988 234.427 400.536 233.934 400.207 233.277C399.878 232.615 399.714 231.78 399.714 230.774V223.256H401.532V230.65C401.532 231.513 401.773 232.201 402.256 232.715C402.744 233.228 403.365 233.485 404.12 233.485C404.572 233.485 405.031 233.369 405.499 233.138C405.971 232.907 406.366 232.553 406.685 232.075C407.008 231.598 407.17 230.989 407.17 230.25ZM412.751 235.087V223.256H414.507V225.043H414.63C414.846 224.458 415.236 223.983 415.801 223.618C416.366 223.254 417.003 223.071 417.711 223.071C417.845 223.071 418.012 223.074 418.212 223.079C418.412 223.084 418.564 223.092 418.666 223.102V224.951C418.605 224.935 418.463 224.912 418.243 224.881C418.027 224.845 417.799 224.827 417.557 224.827C416.982 224.827 416.469 224.948 416.017 225.189C415.57 225.426 415.216 225.754 414.954 226.175C414.697 226.591 414.569 227.066 414.569 227.6V235.087H412.751ZM421.255 235.087V223.256H423.011V225.043H423.134C423.35 224.458 423.74 223.983 424.305 223.618C424.87 223.254 425.507 223.071 426.215 223.071C426.349 223.071 426.516 223.074 426.716 223.079C426.916 223.084 427.068 223.092 427.17 223.102V224.951C427.109 224.935 426.967 224.912 426.747 224.881C426.531 224.845 426.302 224.827 426.061 224.827C425.486 224.827 424.973 224.948 424.521 225.189C424.074 225.426 423.72 225.754 423.458 226.175C423.201 226.591 423.073 227.066 423.073 227.6V235.087H421.255ZM434.359 235.334C433.219 235.334 432.236 235.082 431.409 234.579C430.587 234.07 429.953 233.362 429.507 232.453C429.065 231.539 428.844 230.476 428.844 229.264C428.844 228.052 429.065 226.984 429.507 226.06C429.953 225.13 430.575 224.406 431.371 223.888C432.172 223.364 433.106 223.102 434.174 223.102C434.79 223.102 435.399 223.205 436 223.41C436.6 223.616 437.147 223.949 437.64 224.412C438.133 224.869 438.526 225.474 438.819 226.229C439.111 226.984 439.258 227.914 439.258 229.018V229.788H430.138V228.217H437.409C437.409 227.549 437.276 226.953 437.009 226.43C436.747 225.906 436.372 225.492 435.884 225.189C435.401 224.887 434.831 224.735 434.174 224.735C433.45 224.735 432.824 224.915 432.295 225.274C431.771 225.629 431.368 226.091 431.086 226.661C430.803 227.231 430.662 227.842 430.662 228.494V229.541C430.662 230.435 430.816 231.192 431.124 231.814C431.437 232.43 431.871 232.9 432.426 233.223C432.98 233.541 433.625 233.701 434.359 233.701C434.837 233.701 435.268 233.634 435.653 233.5C436.043 233.362 436.38 233.156 436.662 232.884C436.945 232.607 437.163 232.263 437.317 231.852L439.073 232.345C438.888 232.941 438.577 233.464 438.141 233.916C437.704 234.363 437.165 234.712 436.523 234.964C435.882 235.21 435.16 235.334 434.359 235.334ZM444.275 227.97V235.087H442.457V223.256H444.213V225.105H444.367C444.644 224.504 445.065 224.021 445.63 223.657C446.195 223.287 446.924 223.102 447.818 223.102C448.619 223.102 449.32 223.266 449.92 223.595C450.521 223.919 450.988 224.412 451.322 225.074C451.656 225.731 451.823 226.563 451.823 227.57V235.087H450.005V227.693C450.005 226.763 449.764 226.039 449.281 225.521C448.798 224.997 448.136 224.735 447.294 224.735C446.714 224.735 446.195 224.861 445.738 225.112C445.286 225.364 444.929 225.731 444.667 226.214C444.405 226.697 444.275 227.282 444.275 227.97ZM460.723 223.256V224.797H454.592V223.256H460.723ZM456.379 220.422H458.197V231.698C458.197 232.212 458.272 232.597 458.42 232.853C458.575 233.105 458.77 233.274 459.006 233.362C459.247 233.444 459.501 233.485 459.768 233.485C459.969 233.485 460.133 233.475 460.261 233.454C460.39 233.428 460.492 233.408 460.569 233.393L460.939 235.025C460.816 235.072 460.644 235.118 460.423 235.164C460.202 235.215 459.922 235.241 459.584 235.241C459.07 235.241 458.567 235.131 458.074 234.91C457.586 234.689 457.18 234.353 456.857 233.901C456.539 233.449 456.379 232.879 456.379 232.191V220.422ZM465.964 219.313V235.087H464.146V219.313H465.964ZM470.897 239.524C470.589 239.524 470.315 239.498 470.073 239.447C469.832 239.4 469.665 239.354 469.573 239.308L470.035 237.706C470.476 237.819 470.867 237.86 471.206 237.829C471.544 237.798 471.845 237.647 472.107 237.375C472.374 237.108 472.618 236.674 472.839 236.073L473.177 235.149L468.802 223.256H470.774L474.04 232.684H474.163L477.429 223.256H479.401L474.379 236.812C474.153 237.423 473.873 237.929 473.539 238.33C473.206 238.735 472.818 239.036 472.376 239.231C471.94 239.426 471.447 239.524 470.897 239.524ZM496.224 230.25V223.256H498.042V235.087H496.224V233.084H496.101C495.824 233.685 495.392 234.196 494.807 234.617C494.221 235.033 493.482 235.241 492.589 235.241C491.849 235.241 491.192 235.079 490.617 234.756C490.042 234.427 489.59 233.934 489.261 233.277C488.932 232.615 488.768 231.78 488.768 230.774V223.256H490.586V230.65C490.586 231.513 490.827 232.201 491.31 232.715C491.798 233.228 492.419 233.485 493.174 233.485C493.626 233.485 494.085 233.369 494.553 233.138C495.025 232.907 495.42 232.553 495.739 232.075C496.062 231.598 496.224 230.989 496.224 230.25ZM503.623 227.97V235.087H501.805V223.256H503.561V225.105H503.715C503.992 224.504 504.413 224.021 504.978 223.657C505.543 223.287 506.272 223.102 507.166 223.102C507.967 223.102 508.668 223.266 509.269 223.595C509.869 223.919 510.337 224.412 510.67 225.074C511.004 225.731 511.171 226.563 511.171 227.57V235.087H509.353V227.693C509.353 226.763 509.112 226.039 508.629 225.521C508.147 224.997 507.484 224.735 506.642 224.735C506.062 224.735 505.543 224.861 505.086 225.112C504.634 225.364 504.277 225.731 504.016 226.214C503.754 226.697 503.623 227.282 503.623 227.97ZM519.394 235.334C518.408 235.334 517.538 235.084 516.783 234.586C516.028 234.083 515.437 233.375 515.011 232.461C514.585 231.541 514.372 230.455 514.372 229.202C514.372 227.96 514.585 226.881 515.011 225.967C515.437 225.053 516.031 224.347 516.791 223.849C517.55 223.351 518.429 223.102 519.425 223.102C520.195 223.102 520.803 223.231 521.25 223.487C521.702 223.739 522.046 224.026 522.282 224.35C522.524 224.668 522.711 224.93 522.845 225.136H522.999V219.313H524.816V235.087H523.06V233.269H522.845C522.711 233.485 522.521 233.757 522.275 234.086C522.028 234.409 521.676 234.699 521.219 234.956C520.762 235.208 520.154 235.334 519.394 235.334ZM519.64 233.701C520.37 233.701 520.986 233.511 521.489 233.131C521.992 232.746 522.375 232.214 522.637 231.536C522.899 230.853 523.029 230.065 523.029 229.172C523.029 228.288 522.901 227.516 522.644 226.853C522.388 226.186 522.008 225.667 521.504 225.297C521.001 224.922 520.38 224.735 519.64 224.735C518.87 224.735 518.228 224.933 517.715 225.328C517.206 225.718 516.824 226.25 516.567 226.923C516.316 227.59 516.19 228.34 516.19 229.172C516.19 230.014 516.318 230.779 516.575 231.467C516.837 232.15 517.222 232.694 517.73 233.1C518.244 233.5 518.88 233.701 519.64 233.701ZM533.792 235.334C532.652 235.334 531.669 235.082 530.842 234.579C530.021 234.07 529.386 233.362 528.94 232.453C528.498 231.539 528.277 230.476 528.277 229.264C528.277 228.052 528.498 226.984 528.94 226.06C529.386 225.13 530.008 224.406 530.804 223.888C531.605 223.364 532.539 223.102 533.607 223.102C534.223 223.102 534.832 223.205 535.433 223.41C536.034 223.616 536.58 223.949 537.073 224.412C537.566 224.869 537.959 225.474 538.252 226.229C538.545 226.984 538.691 227.914 538.691 229.018V229.788H529.571V228.217H536.842C536.842 227.549 536.709 226.953 536.442 226.43C536.18 225.906 535.805 225.492 535.317 225.189C534.835 224.887 534.265 224.735 533.607 224.735C532.883 224.735 532.257 224.915 531.728 225.274C531.204 225.629 530.801 226.091 530.519 226.661C530.236 227.231 530.095 227.842 530.095 228.494V229.541C530.095 230.435 530.249 231.192 530.557 231.814C530.87 232.43 531.304 232.9 531.859 233.223C532.413 233.541 533.058 233.701 533.792 233.701C534.27 233.701 534.701 233.634 535.086 233.5C535.476 233.362 535.813 233.156 536.095 232.884C536.378 232.607 536.596 232.263 536.75 231.852L538.506 232.345C538.321 232.941 538.01 233.464 537.574 233.916C537.138 234.363 536.598 234.712 535.957 234.964C535.315 235.21 534.593 235.334 533.792 235.334ZM541.89 235.087V223.256H543.646V225.043H543.769C543.985 224.458 544.375 223.983 544.94 223.618C545.505 223.254 546.142 223.071 546.85 223.071C546.984 223.071 547.151 223.074 547.351 223.079C547.551 223.084 547.703 223.092 547.805 223.102V224.951C547.744 224.935 547.602 224.912 547.382 224.881C547.166 224.845 546.937 224.827 546.696 224.827C546.121 224.827 545.608 224.948 545.156 225.189C544.709 225.426 544.355 225.754 544.093 226.175C543.836 226.591 543.708 227.066 543.708 227.6V235.087H541.89ZM556.928 235.087V223.256H558.684V225.043H558.807C559.023 224.458 559.413 223.983 559.978 223.618C560.543 223.254 561.18 223.071 561.888 223.071C562.022 223.071 562.189 223.074 562.389 223.079C562.589 223.084 562.741 223.092 562.843 223.102V224.951C562.782 224.935 562.64 224.912 562.42 224.881C562.204 224.845 561.976 224.827 561.734 224.827C561.159 224.827 560.646 224.948 560.194 225.189C559.747 225.426 559.393 225.754 559.131 226.175C558.874 226.591 558.746 227.066 558.746 227.6V235.087H556.928ZM570.032 235.334C568.892 235.334 567.909 235.082 567.082 234.579C566.261 234.07 565.626 233.362 565.18 232.453C564.738 231.539 564.517 230.476 564.517 229.264C564.517 228.052 564.738 226.984 565.18 226.06C565.626 225.13 566.248 224.406 567.044 223.888C567.845 223.364 568.779 223.102 569.847 223.102C570.463 223.102 571.072 223.205 571.673 223.41C572.274 223.616 572.82 223.949 573.313 224.412C573.806 224.869 574.199 225.474 574.492 226.229C574.784 226.984 574.931 227.914 574.931 229.018V229.788H565.811V228.217H573.082C573.082 227.549 572.949 226.953 572.682 226.43C572.42 225.906 572.045 225.492 571.557 225.189C571.074 224.887 570.505 224.735 569.847 224.735C569.123 224.735 568.497 224.915 567.968 225.274C567.444 225.629 567.041 226.091 566.759 226.661C566.476 227.231 566.335 227.842 566.335 228.494V229.541C566.335 230.435 566.489 231.192 566.797 231.814C567.11 232.43 567.544 232.9 568.099 233.223C568.653 233.541 569.298 233.701 570.032 233.701C570.51 233.701 570.941 233.634 571.326 233.5C571.716 233.362 572.053 233.156 572.335 232.884C572.618 232.607 572.836 232.263 572.99 231.852L574.746 232.345C574.561 232.941 574.25 233.464 573.814 233.916C573.378 234.363 572.838 234.712 572.196 234.964C571.555 235.21 570.833 235.334 570.032 235.334ZM587.444 223.256L583.069 235.087H581.22L576.845 223.256H578.817L582.083 232.684H582.206L585.472 223.256H587.444ZM590.277 235.087V223.256H592.095V235.087H590.277ZM591.201 221.284C590.847 221.284 590.541 221.164 590.285 220.922C590.033 220.681 589.907 220.391 589.907 220.052C589.907 219.713 590.033 219.423 590.285 219.182C590.541 218.94 590.847 218.82 591.201 218.82C591.556 218.82 591.859 218.94 592.11 219.182C592.367 219.423 592.495 219.713 592.495 220.052C592.495 220.391 592.367 220.681 592.11 220.922C591.859 221.164 591.556 221.284 591.201 221.284ZM600.818 235.334C599.678 235.334 598.695 235.082 597.868 234.579C597.047 234.07 596.412 233.362 595.966 232.453C595.524 231.539 595.303 230.476 595.303 229.264C595.303 228.052 595.524 226.984 595.966 226.06C596.412 225.13 597.034 224.406 597.83 223.888C598.631 223.364 599.565 223.102 600.633 223.102C601.25 223.102 601.858 223.205 602.459 223.41C603.06 223.616 603.607 223.949 604.099 224.412C604.592 224.869 604.985 225.474 605.278 226.229C605.571 226.984 605.717 227.914 605.717 229.018V229.788H596.597V228.217H603.868C603.868 227.549 603.735 226.953 603.468 226.43C603.206 225.906 602.831 225.492 602.343 225.189C601.861 224.887 601.291 224.735 600.633 224.735C599.909 224.735 599.283 224.915 598.754 225.274C598.23 225.629 597.827 226.091 597.545 226.661C597.262 227.231 597.121 227.842 597.121 228.494V229.541C597.121 230.435 597.275 231.192 597.583 231.814C597.896 232.43 598.33 232.9 598.885 233.223C599.44 233.541 600.084 233.701 600.818 233.701C601.296 233.701 601.727 233.634 602.112 233.5C602.502 233.362 602.839 233.156 603.121 232.884C603.404 232.607 603.622 232.263 603.776 231.852L605.532 232.345C605.347 232.941 605.037 233.464 604.6 233.916C604.164 234.363 603.624 234.712 602.983 234.964C602.341 235.21 601.619 235.334 600.818 235.334ZM611.596 235.087L607.992 223.256H609.902L612.459 232.314H612.582L615.109 223.256H617.05L619.545 232.283H619.668L622.226 223.256H624.136L620.531 235.087H618.744L616.156 225.998H615.971L613.383 235.087H611.596ZM626.688 235.21C626.308 235.21 625.982 235.074 625.71 234.802C625.437 234.53 625.301 234.204 625.301 233.824C625.301 233.444 625.437 233.118 625.71 232.846C625.982 232.574 626.308 232.437 626.688 232.437C627.068 232.437 627.394 232.574 627.666 232.846C627.938 233.118 628.074 233.444 628.074 233.824C628.074 234.075 628.01 234.307 627.882 234.517C627.758 234.728 627.592 234.897 627.381 235.025C627.176 235.149 626.945 235.21 626.688 235.21ZM637.195 219.313H639.382L643.757 226.676H643.942L648.317 219.313H650.505L644.805 228.586V235.087H642.895V228.586L637.195 219.313ZM656.296 235.334C655.227 235.334 654.29 235.079 653.484 234.571C652.683 234.063 652.057 233.351 651.605 232.437C651.158 231.523 650.935 230.455 650.935 229.233C650.935 228.001 651.158 226.925 651.605 226.006C652.057 225.087 652.683 224.373 653.484 223.865C654.29 223.356 655.227 223.102 656.296 223.102C657.364 223.102 658.298 223.356 659.099 223.865C659.905 224.373 660.532 225.087 660.979 226.006C661.43 226.925 661.656 228.001 661.656 229.233C661.656 230.455 661.43 231.523 660.979 232.437C660.532 233.351 659.905 234.063 659.099 234.571C658.298 235.079 657.364 235.334 656.296 235.334ZM656.296 233.701C657.107 233.701 657.774 233.493 658.298 233.077C658.822 232.661 659.21 232.114 659.461 231.436C659.713 230.758 659.839 230.024 659.839 229.233C659.839 228.442 659.713 227.706 659.461 227.023C659.21 226.34 658.822 225.788 658.298 225.367C657.774 224.946 657.107 224.735 656.296 224.735C655.484 224.735 654.817 224.946 654.293 225.367C653.769 225.788 653.381 226.34 653.13 227.023C652.878 227.706 652.752 228.442 652.752 229.233C652.752 230.024 652.878 230.758 653.13 231.436C653.381 232.114 653.769 232.661 654.293 233.077C654.817 233.493 655.484 233.701 656.296 233.701ZM672.321 230.25V223.256H674.139V235.087H672.321V233.084H672.198C671.92 233.685 671.489 234.196 670.904 234.617C670.318 235.033 669.579 235.241 668.685 235.241C667.946 235.241 667.289 235.079 666.714 234.756C666.138 234.427 665.687 233.934 665.358 233.277C665.029 232.615 664.865 231.78 664.865 230.774V223.256H666.683V230.65C666.683 231.513 666.924 232.201 667.407 232.715C667.895 233.228 668.516 233.485 669.271 233.485C669.723 233.485 670.182 233.369 670.649 233.138C671.122 232.907 671.517 232.553 671.836 232.075C672.159 231.598 672.321 230.989 672.321 230.25ZM679.822 219.313V220.699C679.822 221.12 679.745 221.569 679.591 222.047C679.442 222.519 679.221 222.979 678.928 223.426C678.641 223.867 678.291 224.252 677.881 224.581L676.895 223.78C677.218 223.318 677.498 222.838 677.734 222.34C677.976 221.836 678.096 221.3 678.096 220.73V219.313H679.822ZM684.474 219.313V235.087H682.657V219.313H684.474ZM690.055 219.313V235.087H688.238V219.313H690.055ZM122.665 261.087V249.256H124.421V251.043H124.544C124.76 250.458 125.15 249.983 125.715 249.618C126.28 249.254 126.917 249.071 127.625 249.071C127.759 249.071 127.926 249.074 128.126 249.079C128.326 249.084 128.478 249.092 128.58 249.102V250.951C128.519 250.935 128.378 250.912 128.157 250.881C127.941 250.845 127.713 250.827 127.471 250.827C126.896 250.827 126.383 250.948 125.931 251.189C125.484 251.426 125.13 251.754 124.868 252.175C124.611 252.591 124.483 253.066 124.483 253.6V261.087H122.665ZM135.769 261.334C134.629 261.334 133.646 261.082 132.819 260.579C131.998 260.07 131.363 259.362 130.917 258.453C130.475 257.539 130.254 256.476 130.254 255.264C130.254 254.052 130.475 252.984 130.917 252.06C131.363 251.13 131.985 250.406 132.781 249.888C133.582 249.364 134.516 249.102 135.584 249.102C136.201 249.102 136.809 249.205 137.41 249.41C138.011 249.616 138.558 249.949 139.05 250.412C139.543 250.869 139.936 251.474 140.229 252.229C140.522 252.984 140.668 253.914 140.668 255.018V255.788H131.548V254.217H138.819C138.819 253.549 138.686 252.953 138.419 252.43C138.157 251.906 137.782 251.492 137.294 251.189C136.812 250.887 136.242 250.735 135.584 250.735C134.86 250.735 134.234 250.915 133.705 251.274C133.181 251.629 132.778 252.091 132.496 252.661C132.213 253.231 132.072 253.842 132.072 254.494V255.541C132.072 256.435 132.226 257.192 132.534 257.814C132.847 258.43 133.281 258.9 133.836 259.223C134.391 259.541 135.035 259.701 135.769 259.701C136.247 259.701 136.678 259.634 137.063 259.5C137.454 259.362 137.79 259.156 138.072 258.884C138.355 258.607 138.573 258.263 138.727 257.852L140.483 258.345C140.298 258.941 139.988 259.464 139.551 259.916C139.115 260.363 138.575 260.712 137.934 260.964C137.292 261.21 136.57 261.334 135.769 261.334ZM148.673 261.334C147.564 261.334 146.609 261.072 145.808 260.548C145.007 260.024 144.391 259.303 143.959 258.384C143.528 257.464 143.312 256.414 143.312 255.233C143.312 254.032 143.533 252.971 143.975 252.052C144.422 251.128 145.043 250.406 145.839 249.888C146.64 249.364 147.574 249.102 148.642 249.102C149.474 249.102 150.224 249.256 150.892 249.564C151.559 249.872 152.106 250.304 152.532 250.858C152.958 251.413 153.223 252.06 153.325 252.799H151.508C151.369 252.26 151.061 251.783 150.583 251.367C150.111 250.946 149.474 250.735 148.673 250.735C147.965 250.735 147.343 250.92 146.809 251.29C146.28 251.654 145.867 252.17 145.569 252.838C145.276 253.5 145.13 254.278 145.13 255.172C145.13 256.086 145.274 256.882 145.561 257.559C145.854 258.237 146.265 258.764 146.794 259.138C147.328 259.513 147.954 259.701 148.673 259.701C149.146 259.701 149.574 259.618 149.96 259.454C150.345 259.29 150.671 259.054 150.938 258.746C151.205 258.437 151.395 258.068 151.508 257.636H153.325C153.223 258.335 152.969 258.964 152.563 259.523C152.162 260.078 151.631 260.52 150.969 260.848C150.311 261.172 149.546 261.334 148.673 261.334ZM161.377 261.334C160.237 261.334 159.254 261.082 158.427 260.579C157.605 260.07 156.971 259.362 156.524 258.453C156.083 257.539 155.862 256.476 155.862 255.264C155.862 254.052 156.083 252.984 156.524 252.06C156.971 251.13 157.592 250.406 158.388 249.888C159.189 249.364 160.124 249.102 161.192 249.102C161.808 249.102 162.417 249.205 163.018 249.41C163.618 249.616 164.165 249.949 164.658 250.412C165.151 250.869 165.544 251.474 165.837 252.229C166.129 252.984 166.276 253.914 166.276 255.018V255.788H157.156V254.217H164.427C164.427 253.549 164.294 252.953 164.027 252.43C163.765 251.906 163.39 251.492 162.902 251.189C162.419 250.887 161.849 250.735 161.192 250.735C160.468 250.735 159.842 250.915 159.313 251.274C158.789 251.629 158.386 252.091 158.103 252.661C157.821 253.231 157.68 253.842 157.68 254.494V255.541C157.68 256.435 157.834 257.192 158.142 257.814C158.455 258.43 158.889 258.9 159.444 259.223C159.998 259.541 160.643 259.701 161.377 259.701C161.854 259.701 162.286 259.634 162.671 259.5C163.061 259.362 163.398 259.156 163.68 258.884C163.962 258.607 164.181 258.263 164.335 257.852L166.091 258.345C165.906 258.941 165.595 259.464 165.159 259.916C164.722 260.363 164.183 260.712 163.541 260.964C162.899 261.21 162.178 261.334 161.377 261.334ZM169.475 261.087V249.256H171.292V261.087H169.475ZM170.399 247.284C170.045 247.284 169.739 247.164 169.482 246.922C169.231 246.681 169.105 246.391 169.105 246.052C169.105 245.713 169.231 245.423 169.482 245.182C169.739 244.94 170.045 244.82 170.399 244.82C170.753 244.82 171.056 244.94 171.308 245.182C171.565 245.423 171.693 245.713 171.693 246.052C171.693 246.391 171.565 246.681 171.308 246.922C171.056 247.164 170.753 247.284 170.399 247.284ZM184.73 249.256L180.355 261.087H178.506L174.131 249.256H176.103L179.369 258.684H179.492L182.758 249.256H184.73ZM192.1 261.334C190.96 261.334 189.976 261.082 189.15 260.579C188.328 260.07 187.694 259.362 187.247 258.453C186.805 257.539 186.585 256.476 186.585 255.264C186.585 254.052 186.805 252.984 187.247 252.06C187.694 251.13 188.315 250.406 189.111 249.888C189.912 249.364 190.847 249.102 191.915 249.102C192.531 249.102 193.139 249.205 193.74 249.41C194.341 249.616 194.888 249.949 195.381 250.412C195.874 250.869 196.267 251.474 196.559 252.229C196.852 252.984 196.998 253.914 196.998 255.018V255.788H187.879V254.217H195.15C195.15 253.549 195.016 252.953 194.749 252.43C194.487 251.906 194.112 251.492 193.625 251.189C193.142 250.887 192.572 250.735 191.915 250.735C191.191 250.735 190.564 250.915 190.035 251.274C189.512 251.629 189.108 252.091 188.826 252.661C188.544 253.231 188.402 253.842 188.402 254.494V255.541C188.402 256.435 188.556 257.192 188.865 257.814C189.178 258.43 189.612 258.9 190.166 259.223C190.721 259.541 191.365 259.701 192.1 259.701C192.577 259.701 193.008 259.634 193.394 259.5C193.784 259.362 194.12 259.156 194.403 258.884C194.685 258.607 194.903 258.263 195.057 257.852L196.813 258.345C196.629 258.941 196.318 259.464 195.881 259.916C195.445 260.363 194.906 260.712 194.264 260.964C193.622 261.21 192.901 261.334 192.1 261.334ZM210.213 261.364C209.463 261.364 208.783 261.223 208.172 260.941C207.561 260.653 207.075 260.24 206.716 259.701C206.356 259.156 206.177 258.499 206.177 257.729C206.177 257.051 206.31 256.502 206.577 256.081C206.844 255.654 207.201 255.321 207.648 255.079C208.095 254.838 208.588 254.658 209.127 254.54C209.671 254.417 210.218 254.319 210.767 254.247C211.486 254.155 212.069 254.086 212.516 254.039C212.968 253.988 213.296 253.903 213.502 253.785C213.712 253.667 213.817 253.462 213.817 253.169V253.107C213.817 252.347 213.61 251.757 213.194 251.336C212.783 250.915 212.159 250.704 211.322 250.704C210.454 250.704 209.774 250.894 209.281 251.274C208.788 251.654 208.441 252.06 208.241 252.491L206.516 251.875C206.824 251.156 207.235 250.596 207.748 250.196C208.267 249.79 208.831 249.508 209.443 249.349C210.059 249.184 210.665 249.102 211.26 249.102C211.64 249.102 212.077 249.148 212.57 249.241C213.068 249.328 213.548 249.51 214.01 249.788C214.477 250.065 214.865 250.483 215.173 251.043C215.481 251.603 215.635 252.353 215.635 253.292V261.087H213.817V259.485H213.725C213.602 259.742 213.396 260.016 213.109 260.309C212.821 260.602 212.439 260.851 211.961 261.056C211.484 261.262 210.901 261.364 210.213 261.364ZM210.49 259.731C211.209 259.731 211.815 259.59 212.308 259.308C212.806 259.025 213.181 258.661 213.432 258.214C213.689 257.767 213.817 257.297 213.817 256.805V255.141C213.74 255.233 213.571 255.318 213.309 255.395C213.052 255.467 212.755 255.531 212.416 255.588C212.082 255.639 211.756 255.685 211.437 255.726C211.124 255.762 210.87 255.793 210.675 255.819C210.202 255.88 209.761 255.98 209.35 256.119C208.944 256.253 208.616 256.455 208.364 256.728C208.118 256.995 207.994 257.359 207.994 257.821C207.994 258.453 208.228 258.93 208.695 259.254C209.168 259.572 209.766 259.731 210.49 259.731ZM221.205 253.97V261.087H219.387V249.256H221.143V251.105H221.297C221.574 250.504 221.995 250.021 222.56 249.657C223.125 249.287 223.854 249.102 224.748 249.102C225.549 249.102 226.25 249.266 226.85 249.595C227.451 249.919 227.919 250.412 228.252 251.074C228.586 251.731 228.753 252.563 228.753 253.57V261.087H226.935V253.693C226.935 252.763 226.694 252.039 226.211 251.521C225.728 250.997 225.066 250.735 224.224 250.735C223.644 250.735 223.125 250.861 222.668 251.112C222.216 251.364 221.859 251.731 221.597 252.214C221.336 252.697 221.205 253.282 221.205 253.97ZM244.003 261.334C242.863 261.334 241.88 261.082 241.053 260.579C240.231 260.07 239.597 259.362 239.15 258.453C238.709 257.539 238.488 256.476 238.488 255.264C238.488 254.052 238.709 252.984 239.15 252.06C239.597 251.13 240.218 250.406 241.014 249.888C241.815 249.364 242.75 249.102 243.818 249.102C244.434 249.102 245.043 249.205 245.643 249.41C246.244 249.616 246.791 249.949 247.284 250.412C247.777 250.869 248.17 251.474 248.463 252.229C248.755 252.984 248.902 253.914 248.902 255.018V255.788H239.782V254.217H247.053C247.053 253.549 246.919 252.953 246.652 252.43C246.391 251.906 246.016 251.492 245.528 251.189C245.045 250.887 244.475 250.735 243.818 250.735C243.094 250.735 242.467 250.915 241.939 251.274C241.415 251.629 241.012 252.091 240.729 252.661C240.447 253.231 240.306 253.842 240.306 254.494V255.541C240.306 256.435 240.46 257.192 240.768 257.814C241.081 258.43 241.515 258.9 242.07 259.223C242.624 259.541 243.269 259.701 244.003 259.701C244.48 259.701 244.912 259.634 245.297 259.5C245.687 259.362 246.023 259.156 246.306 258.884C246.588 258.607 246.807 258.263 246.961 257.852L248.717 258.345C248.532 258.941 248.221 259.464 247.785 259.916C247.348 260.363 246.809 260.712 246.167 260.964C245.525 261.21 244.804 261.334 244.003 261.334ZM252.101 261.087V249.256H253.857V251.105H254.011C254.257 250.473 254.655 249.983 255.205 249.634C255.754 249.279 256.414 249.102 257.184 249.102C257.965 249.102 258.614 249.279 259.133 249.634C259.657 249.983 260.065 250.473 260.357 251.105H260.481C260.784 250.494 261.238 250.008 261.844 249.649C262.45 249.284 263.177 249.102 264.024 249.102C265.082 249.102 265.947 249.433 266.62 250.096C267.292 250.753 267.629 251.777 267.629 253.169V261.087H265.811V253.169C265.811 252.296 265.572 251.672 265.094 251.297C264.617 250.922 264.055 250.735 263.408 250.735C262.576 250.735 261.931 250.987 261.474 251.49C261.017 251.988 260.789 252.62 260.789 253.385V261.087H258.94V252.984C258.94 252.311 258.722 251.77 258.286 251.359C257.849 250.943 257.287 250.735 256.599 250.735C256.126 250.735 255.685 250.861 255.274 251.112C254.868 251.364 254.54 251.713 254.288 252.16C254.042 252.602 253.918 253.113 253.918 253.693V261.087H252.101ZM274.867 261.364C274.118 261.364 273.437 261.223 272.826 260.941C272.215 260.653 271.73 260.24 271.371 259.701C271.011 259.156 270.831 258.499 270.831 257.729C270.831 257.051 270.965 256.502 271.232 256.081C271.499 255.654 271.856 255.321 272.302 255.079C272.749 254.838 273.242 254.658 273.781 254.54C274.326 254.417 274.873 254.319 275.422 254.247C276.141 254.155 276.724 254.086 277.17 254.039C277.622 253.988 277.951 253.903 278.156 253.785C278.367 253.667 278.472 253.462 278.472 253.169V253.107C278.472 252.347 278.264 251.757 277.848 251.336C277.437 250.915 276.814 250.704 275.977 250.704C275.109 250.704 274.428 250.894 273.935 251.274C273.442 251.654 273.096 252.06 272.896 252.491L271.17 251.875C271.478 251.156 271.889 250.596 272.403 250.196C272.921 249.79 273.486 249.508 274.097 249.349C274.713 249.184 275.319 249.102 275.915 249.102C276.295 249.102 276.731 249.148 277.224 249.241C277.722 249.328 278.203 249.51 278.665 249.788C279.132 250.065 279.52 250.483 279.828 251.043C280.136 251.603 280.29 252.353 280.29 253.292V261.087H278.472V259.485H278.38C278.256 259.742 278.051 260.016 277.763 260.309C277.476 260.602 277.093 260.851 276.616 261.056C276.138 261.262 275.555 261.364 274.867 261.364ZM275.145 259.731C275.864 259.731 276.469 259.59 276.962 259.308C277.461 259.025 277.835 258.661 278.087 258.214C278.344 257.767 278.472 257.297 278.472 256.805V255.141C278.395 255.233 278.226 255.318 277.964 255.395C277.707 255.467 277.409 255.531 277.07 255.588C276.737 255.639 276.41 255.685 276.092 255.726C275.779 255.762 275.525 255.793 275.33 255.819C274.857 255.88 274.416 255.98 274.005 256.119C273.599 256.253 273.27 256.455 273.019 256.728C272.772 256.995 272.649 257.359 272.649 257.821C272.649 258.453 272.883 258.93 273.35 259.254C273.822 259.572 274.421 259.731 275.145 259.731ZM284.041 261.087V249.256H285.859V261.087H284.041ZM284.966 247.284C284.611 247.284 284.306 247.164 284.049 246.922C283.798 246.681 283.672 246.391 283.672 246.052C283.672 245.713 283.798 245.423 284.049 245.182C284.306 244.94 284.611 244.82 284.966 244.82C285.32 244.82 285.623 244.94 285.875 245.182C286.131 245.423 286.26 245.713 286.26 246.052C286.26 246.391 286.131 246.681 285.875 246.922C285.623 247.164 285.32 247.284 284.966 247.284ZM291.44 245.313V261.087H289.622V245.313H291.44ZM306.544 261.334C305.476 261.334 304.539 261.079 303.732 260.571C302.931 260.063 302.305 259.351 301.853 258.437C301.406 257.523 301.183 256.455 301.183 255.233C301.183 254.001 301.406 252.925 301.853 252.006C302.305 251.087 302.931 250.373 303.732 249.865C304.539 249.356 305.476 249.102 306.544 249.102C307.612 249.102 308.546 249.356 309.347 249.865C310.154 250.373 310.78 251.087 311.227 252.006C311.679 252.925 311.905 254.001 311.905 255.233C311.905 256.455 311.679 257.523 311.227 258.437C310.78 259.351 310.154 260.063 309.347 260.571C308.546 261.079 307.612 261.334 306.544 261.334ZM306.544 259.701C307.355 259.701 308.023 259.493 308.546 259.077C309.07 258.661 309.458 258.114 309.709 257.436C309.961 256.758 310.087 256.024 310.087 255.233C310.087 254.442 309.961 253.706 309.709 253.023C309.458 252.34 309.07 251.788 308.546 251.367C308.023 250.946 307.355 250.735 306.544 250.735C305.732 250.735 305.065 250.946 304.541 251.367C304.017 251.788 303.63 252.34 303.378 253.023C303.126 253.706 303.001 254.442 303.001 255.233C303.001 256.024 303.126 256.758 303.378 257.436C303.63 258.114 304.017 258.661 304.541 259.077C305.065 259.493 305.732 259.701 306.544 259.701ZM316.931 253.97V261.087H315.113V249.256H316.869V251.105H317.023C317.301 250.504 317.722 250.021 318.287 249.657C318.851 249.287 319.581 249.102 320.474 249.102C321.275 249.102 321.976 249.266 322.577 249.595C323.178 249.919 323.645 250.412 323.979 251.074C324.312 251.731 324.479 252.563 324.479 253.57V261.087H322.661V253.693C322.661 252.763 322.42 252.039 321.937 251.521C321.455 250.997 320.792 250.735 319.95 250.735C319.37 250.735 318.851 250.861 318.394 251.112C317.942 251.364 317.586 251.731 317.324 252.214C317.062 252.697 316.931 253.282 316.931 253.97ZM333.041 261.334C331.932 261.334 330.977 261.072 330.176 260.548C329.375 260.024 328.758 259.303 328.327 258.384C327.896 257.464 327.68 256.414 327.68 255.233C327.68 254.032 327.901 252.971 328.343 252.052C328.789 251.128 329.411 250.406 330.207 249.888C331.008 249.364 331.942 249.102 333.01 249.102C333.842 249.102 334.592 249.256 335.259 249.564C335.927 249.872 336.474 250.304 336.9 250.858C337.326 251.413 337.591 252.06 337.693 252.799H335.875C335.737 252.26 335.429 251.783 334.951 251.367C334.479 250.946 333.842 250.735 333.041 250.735C332.332 250.735 331.711 250.92 331.177 251.29C330.648 251.654 330.235 252.17 329.937 252.838C329.644 253.5 329.498 254.278 329.498 255.172C329.498 256.086 329.642 256.882 329.929 257.559C330.222 258.237 330.633 258.764 331.162 259.138C331.696 259.513 332.322 259.701 333.041 259.701C333.513 259.701 333.942 259.618 334.327 259.454C334.712 259.29 335.038 259.054 335.306 258.746C335.573 258.437 335.763 258.068 335.875 257.636H337.693C337.591 258.335 337.336 258.964 336.931 259.523C336.53 260.078 335.999 260.52 335.336 260.848C334.679 261.172 333.914 261.334 333.041 261.334ZM345.745 261.334C344.605 261.334 343.621 261.082 342.795 260.579C341.973 260.07 341.339 259.362 340.892 258.453C340.451 257.539 340.23 256.476 340.23 255.264C340.23 254.052 340.451 252.984 340.892 252.06C341.339 251.13 341.96 250.406 342.756 249.888C343.557 249.364 344.492 249.102 345.56 249.102C346.176 249.102 346.785 249.205 347.385 249.41C347.986 249.616 348.533 249.949 349.026 250.412C349.519 250.869 349.912 251.474 350.204 252.229C350.497 252.984 350.643 253.914 350.643 255.018V255.788H341.524V254.217H348.795C348.795 253.549 348.661 252.953 348.394 252.43C348.132 251.906 347.758 251.492 347.27 251.189C346.787 250.887 346.217 250.735 345.56 250.735C344.836 250.735 344.209 250.915 343.68 251.274C343.157 251.629 342.754 252.091 342.471 252.661C342.189 253.231 342.048 253.842 342.048 254.494V255.541C342.048 256.435 342.202 257.192 342.51 257.814C342.823 258.43 343.257 258.9 343.811 259.223C344.366 259.541 345.01 259.701 345.745 259.701C346.222 259.701 346.654 259.634 347.039 259.5C347.429 259.362 347.765 259.156 348.048 258.884C348.33 258.607 348.548 258.263 348.702 257.852L350.459 258.345C350.274 258.941 349.963 259.464 349.527 259.916C349.09 260.363 348.551 260.712 347.909 260.964C347.267 261.21 346.546 261.334 345.745 261.334ZM361.547 265.524C361.239 265.524 360.964 265.498 360.723 265.447C360.482 265.4 360.315 265.354 360.222 265.308L360.685 263.706C361.126 263.819 361.516 263.86 361.855 263.829C362.194 263.798 362.495 263.647 362.757 263.375C363.024 263.108 363.267 262.674 363.488 262.073L363.827 261.149L359.452 249.256H361.424L364.69 258.684H364.813L368.079 249.256H370.051L365.029 262.812C364.803 263.423 364.523 263.929 364.189 264.33C363.855 264.735 363.468 265.036 363.026 265.231C362.59 265.426 362.097 265.524 361.547 265.524ZM377.266 261.334C376.198 261.334 375.261 261.079 374.455 260.571C373.654 260.063 373.028 259.351 372.576 258.437C372.129 257.523 371.906 256.455 371.906 255.233C371.906 254.001 372.129 252.925 372.576 252.006C373.028 251.087 373.654 250.373 374.455 249.865C375.261 249.356 376.198 249.102 377.266 249.102C378.334 249.102 379.269 249.356 380.07 249.865C380.876 250.373 381.503 251.087 381.949 252.006C382.401 252.925 382.627 254.001 382.627 255.233C382.627 256.455 382.401 257.523 381.949 258.437C381.503 259.351 380.876 260.063 380.07 260.571C379.269 261.079 378.334 261.334 377.266 261.334ZM377.266 259.701C378.078 259.701 378.745 259.493 379.269 259.077C379.793 258.661 380.18 258.114 380.432 257.436C380.684 256.758 380.81 256.024 380.81 255.233C380.81 254.442 380.684 253.706 380.432 253.023C380.18 252.34 379.793 251.788 379.269 251.367C378.745 250.946 378.078 250.735 377.266 250.735C376.455 250.735 375.788 250.946 375.264 251.367C374.74 251.788 374.352 252.34 374.101 253.023C373.849 253.706 373.723 254.442 373.723 255.233C373.723 256.024 373.849 256.758 374.101 257.436C374.352 258.114 374.74 258.661 375.264 259.077C375.788 259.493 376.455 259.701 377.266 259.701ZM393.292 256.25V249.256H395.11V261.087H393.292V259.084H393.169C392.891 259.685 392.46 260.196 391.875 260.617C391.289 261.033 390.55 261.241 389.656 261.241C388.917 261.241 388.26 261.079 387.684 260.756C387.109 260.427 386.657 259.934 386.329 259.277C386 258.615 385.836 257.78 385.836 256.774V249.256H387.654V256.65C387.654 257.513 387.895 258.201 388.378 258.715C388.865 259.228 389.487 259.485 390.242 259.485C390.694 259.485 391.153 259.369 391.62 259.138C392.093 258.907 392.488 258.553 392.807 258.075C393.13 257.598 393.292 256.989 393.292 256.25ZM398.873 261.087V249.256H400.629V251.043H400.752C400.968 250.458 401.358 249.983 401.923 249.618C402.488 249.254 403.124 249.071 403.833 249.071C403.967 249.071 404.133 249.074 404.334 249.079C404.534 249.084 404.685 249.092 404.788 249.102V250.951C404.727 250.935 404.585 250.912 404.365 250.881C404.149 250.845 403.92 250.827 403.679 250.827C403.104 250.827 402.59 250.948 402.139 251.189C401.692 251.426 401.337 251.754 401.076 252.175C400.819 252.591 400.69 253.066 400.69 253.6V261.087H398.873ZM423.585 249.256L419.21 261.087H417.361L412.986 249.256H414.958L418.224 258.684H418.347L421.613 249.256H423.585ZM430.955 261.334C429.815 261.334 428.831 261.082 428.005 260.579C427.183 260.07 426.549 259.362 426.102 258.453C425.661 257.539 425.44 256.476 425.44 255.264C425.44 254.052 425.661 252.984 426.102 252.06C426.549 251.13 427.17 250.406 427.966 249.888C428.767 249.364 429.702 249.102 430.77 249.102C431.386 249.102 431.995 249.205 432.595 249.41C433.196 249.616 433.743 249.949 434.236 250.412C434.729 250.869 435.122 251.474 435.414 252.229C435.707 252.984 435.853 253.914 435.853 255.018V255.788H426.734V254.217H434.005C434.005 253.549 433.871 252.953 433.604 252.43C433.343 251.906 432.968 251.492 432.48 251.189C431.997 250.887 431.427 250.735 430.77 250.735C430.046 250.735 429.419 250.915 428.891 251.274C428.367 251.629 427.964 252.091 427.681 252.661C427.399 253.231 427.258 253.842 427.258 254.494V255.541C427.258 256.435 427.412 257.192 427.72 257.814C428.033 258.43 428.467 258.9 429.021 259.223C429.576 259.541 430.22 259.701 430.955 259.701C431.432 259.701 431.864 259.634 432.249 259.5C432.639 259.362 432.975 259.156 433.258 258.884C433.54 258.607 433.758 258.263 433.912 257.852L435.669 258.345C435.484 258.941 435.173 259.464 434.737 259.916C434.3 260.363 433.761 260.712 433.119 260.964C432.477 261.21 431.756 261.334 430.955 261.334ZM439.052 261.087V249.256H440.809V251.043H440.932C441.147 250.458 441.538 249.983 442.103 249.618C442.667 249.254 443.304 249.071 444.013 249.071C444.146 249.071 444.313 249.074 444.513 249.079C444.714 249.084 444.865 249.092 444.968 249.102V250.951C444.906 250.935 444.765 250.912 444.544 250.881C444.329 250.845 444.1 250.827 443.859 250.827C443.284 250.827 442.77 250.948 442.318 251.189C441.872 251.426 441.517 251.754 441.255 252.175C440.999 252.591 440.87 253.066 440.87 253.6V261.087H439.052ZM447.556 261.087V249.256H449.374V261.087H447.556ZM448.481 247.284C448.126 247.284 447.821 247.164 447.564 246.922C447.313 246.681 447.187 246.391 447.187 246.052C447.187 245.713 447.313 245.423 447.564 245.182C447.821 244.94 448.126 244.82 448.481 244.82C448.835 244.82 449.138 244.94 449.39 245.182C449.646 245.423 449.775 245.713 449.775 246.052C449.775 246.391 449.646 246.681 449.39 246.922C449.138 247.164 448.835 247.284 448.481 247.284ZM458.406 249.256V250.797H452.028V249.256H458.406ZM453.938 261.087V247.623C453.938 246.945 454.098 246.381 454.416 245.929C454.734 245.477 455.148 245.138 455.656 244.912C456.164 244.686 456.701 244.573 457.266 244.573C457.713 244.573 458.077 244.609 458.36 244.681C458.642 244.753 458.853 244.82 458.991 244.881L458.467 246.453C458.375 246.422 458.247 246.383 458.082 246.337C457.923 246.291 457.713 246.268 457.451 246.268C456.85 246.268 456.416 246.419 456.149 246.722C455.887 247.025 455.756 247.469 455.756 248.055V261.087H453.938ZM461.387 261.087V249.256H463.205V261.087H461.387ZM462.311 247.284C461.957 247.284 461.652 247.164 461.395 246.922C461.143 246.681 461.017 246.391 461.017 246.052C461.017 245.713 461.143 245.423 461.395 245.182C461.652 244.94 461.957 244.82 462.311 244.82C462.666 244.82 462.969 244.94 463.22 245.182C463.477 245.423 463.605 245.713 463.605 246.052C463.605 246.391 463.477 246.681 463.22 246.922C462.969 247.164 462.666 247.284 462.311 247.284ZM471.774 261.334C470.665 261.334 469.71 261.072 468.909 260.548C468.108 260.024 467.492 259.303 467.06 258.384C466.629 257.464 466.413 256.414 466.413 255.233C466.413 254.032 466.634 252.971 467.076 252.052C467.523 251.128 468.144 250.406 468.94 249.888C469.741 249.364 470.675 249.102 471.744 249.102C472.575 249.102 473.325 249.256 473.993 249.564C474.66 249.872 475.207 250.304 475.633 250.858C476.059 251.413 476.324 252.06 476.427 252.799H474.609C474.47 252.26 474.162 251.783 473.685 251.367C473.212 250.946 472.575 250.735 471.774 250.735C471.066 250.735 470.444 250.92 469.91 251.29C469.381 251.654 468.968 252.17 468.67 252.838C468.378 253.5 468.231 254.278 468.231 255.172C468.231 256.086 468.375 256.882 468.663 257.559C468.955 258.237 469.366 258.764 469.895 259.138C470.429 259.513 471.055 259.701 471.774 259.701C472.247 259.701 472.676 259.618 473.061 259.454C473.446 259.29 473.772 259.054 474.039 258.746C474.306 258.437 474.496 258.068 474.609 257.636H476.427C476.324 258.335 476.07 258.964 475.664 259.523C475.264 260.078 474.732 260.52 474.07 260.848C473.412 261.172 472.647 261.334 471.774 261.334ZM482.999 261.364C482.25 261.364 481.569 261.223 480.958 260.941C480.347 260.653 479.862 260.24 479.502 259.701C479.143 259.156 478.963 258.499 478.963 257.729C478.963 257.051 479.097 256.502 479.364 256.081C479.631 255.654 479.988 255.321 480.434 255.079C480.881 254.838 481.374 254.658 481.913 254.54C482.457 254.417 483.004 254.319 483.554 254.247C484.273 254.155 484.855 254.086 485.302 254.039C485.754 253.988 486.083 253.903 486.288 253.785C486.499 253.667 486.604 253.462 486.604 253.169V253.107C486.604 252.347 486.396 251.757 485.98 251.336C485.569 250.915 484.945 250.704 484.108 250.704C483.241 250.704 482.56 250.894 482.067 251.274C481.574 251.654 481.228 252.06 481.027 252.491L479.302 251.875C479.61 251.156 480.021 250.596 480.534 250.196C481.053 249.79 481.618 249.508 482.229 249.349C482.845 249.184 483.451 249.102 484.047 249.102C484.427 249.102 484.863 249.148 485.356 249.241C485.854 249.328 486.334 249.51 486.796 249.788C487.264 250.065 487.651 250.483 487.96 251.043C488.268 251.603 488.422 252.353 488.422 253.292V261.087H486.604V259.485H486.511C486.388 259.742 486.183 260.016 485.895 260.309C485.608 260.602 485.225 260.851 484.748 261.056C484.27 261.262 483.687 261.364 482.999 261.364ZM483.276 259.731C483.995 259.731 484.601 259.59 485.094 259.308C485.592 259.025 485.967 258.661 486.219 258.214C486.476 257.767 486.604 257.297 486.604 256.805V255.141C486.527 255.233 486.357 255.318 486.096 255.395C485.839 255.467 485.541 255.531 485.202 255.588C484.868 255.639 484.542 255.685 484.224 255.726C483.911 255.762 483.656 255.793 483.461 255.819C482.989 255.88 482.547 255.98 482.137 256.119C481.731 256.253 481.402 256.455 481.151 256.728C480.904 256.995 480.781 257.359 480.781 257.821C480.781 258.453 481.015 258.93 481.482 259.254C481.954 259.572 482.552 259.731 483.276 259.731ZM497.318 249.256V250.797H491.187V249.256H497.318ZM492.974 246.422H494.792V257.698C494.792 258.212 494.867 258.597 495.015 258.853C495.169 259.105 495.365 259.274 495.601 259.362C495.842 259.444 496.096 259.485 496.363 259.485C496.564 259.485 496.728 259.475 496.856 259.454C496.985 259.428 497.087 259.408 497.164 259.393L497.534 261.025C497.411 261.072 497.239 261.118 497.018 261.164C496.797 261.215 496.517 261.241 496.179 261.241C495.665 261.241 495.162 261.131 494.669 260.91C494.181 260.689 493.775 260.353 493.452 259.901C493.133 259.449 492.974 258.879 492.974 258.191V246.422ZM500.487 261.087V249.256H502.304V261.087H500.487ZM501.411 247.284C501.057 247.284 500.751 247.164 500.494 246.922C500.243 246.681 500.117 246.391 500.117 246.052C500.117 245.713 500.243 245.423 500.494 245.182C500.751 244.94 501.057 244.82 501.411 244.82C501.765 244.82 502.068 244.94 502.32 245.182C502.577 245.423 502.705 245.713 502.705 246.052C502.705 246.391 502.577 246.681 502.32 246.922C502.068 247.164 501.765 247.284 501.411 247.284ZM510.874 261.334C509.806 261.334 508.869 261.079 508.062 260.571C507.261 260.063 506.635 259.351 506.183 258.437C505.736 257.523 505.513 256.455 505.513 255.233C505.513 254.001 505.736 252.925 506.183 252.006C506.635 251.087 507.261 250.373 508.062 249.865C508.869 249.356 509.806 249.102 510.874 249.102C511.942 249.102 512.876 249.356 513.678 249.865C514.484 250.373 515.11 251.087 515.557 252.006C516.009 252.925 516.235 254.001 516.235 255.233C516.235 256.455 516.009 257.523 515.557 258.437C515.11 259.351 514.484 260.063 513.678 260.571C512.876 261.079 511.942 261.334 510.874 261.334ZM510.874 259.701C511.685 259.701 512.353 259.493 512.876 259.077C513.4 258.661 513.788 258.114 514.04 257.436C514.291 256.758 514.417 256.024 514.417 255.233C514.417 254.442 514.291 253.706 514.04 253.023C513.788 252.34 513.4 251.788 512.876 251.367C512.353 250.946 511.685 250.735 510.874 250.735C510.063 250.735 509.395 250.946 508.871 251.367C508.347 251.788 507.96 252.34 507.708 253.023C507.457 253.706 507.331 254.442 507.331 255.233C507.331 256.024 507.457 256.758 507.708 257.436C507.96 258.114 508.347 258.661 508.871 259.077C509.395 259.493 510.063 259.701 510.874 259.701ZM521.261 253.97V261.087H519.443V249.256H521.199V251.105H521.353C521.631 250.504 522.052 250.021 522.617 249.657C523.182 249.287 523.911 249.102 524.804 249.102C525.605 249.102 526.306 249.266 526.907 249.595C527.508 249.919 527.975 250.412 528.309 251.074C528.643 251.731 528.809 252.563 528.809 253.57V261.087H526.992V253.693C526.992 252.763 526.75 252.039 526.268 251.521C525.785 250.997 525.123 250.735 524.28 250.735C523.7 250.735 523.182 250.861 522.725 251.112C522.273 251.364 521.916 251.731 521.654 252.214C521.392 252.697 521.261 253.282 521.261 253.97ZM539.099 261.087V249.256H540.917V261.087H539.099ZM540.023 247.284C539.669 247.284 539.363 247.164 539.107 246.922C538.855 246.681 538.729 246.391 538.729 246.052C538.729 245.713 538.855 245.423 539.107 245.182C539.363 244.94 539.669 244.82 540.023 244.82C540.378 244.82 540.68 244.94 540.932 245.182C541.189 245.423 541.317 245.713 541.317 246.052C541.317 246.391 541.189 246.681 540.932 246.922C540.68 247.164 540.378 247.284 540.023 247.284ZM553.06 251.906L551.427 252.368C551.324 252.096 551.173 251.831 550.973 251.575C550.778 251.313 550.511 251.097 550.172 250.928C549.833 250.758 549.399 250.673 548.87 250.673C548.146 250.673 547.543 250.84 547.06 251.174C546.582 251.503 546.344 251.921 546.344 252.43C546.344 252.881 546.508 253.238 546.837 253.5C547.165 253.762 547.679 253.98 548.377 254.155L550.133 254.586C551.191 254.843 551.979 255.236 552.498 255.765C553.016 256.288 553.276 256.964 553.276 257.79C553.276 258.468 553.081 259.074 552.69 259.608C552.305 260.142 551.766 260.563 551.073 260.871C550.38 261.179 549.573 261.334 548.654 261.334C547.448 261.334 546.449 261.072 545.658 260.548C544.867 260.024 544.367 259.259 544.156 258.253L545.881 257.821C546.046 258.458 546.356 258.936 546.813 259.254C547.276 259.572 547.879 259.731 548.623 259.731C549.471 259.731 550.143 259.552 550.642 259.192C551.145 258.828 551.396 258.391 551.396 257.883C551.396 257.472 551.253 257.128 550.965 256.851C550.677 256.568 550.236 256.358 549.64 256.219L547.668 255.757C546.585 255.5 545.789 255.102 545.281 254.563C544.777 254.019 544.526 253.338 544.526 252.522C544.526 251.854 544.713 251.264 545.088 250.75C545.468 250.237 545.984 249.834 546.636 249.541C547.294 249.248 548.038 249.102 548.87 249.102C550.041 249.102 550.96 249.359 551.627 249.872C552.3 250.386 552.778 251.064 553.06 251.906ZM567.786 261.334C566.677 261.334 565.722 261.072 564.921 260.548C564.12 260.024 563.504 259.303 563.072 258.384C562.641 257.464 562.425 256.414 562.425 255.233C562.425 254.032 562.646 252.971 563.088 252.052C563.534 251.128 564.156 250.406 564.952 249.888C565.753 249.364 566.687 249.102 567.755 249.102C568.587 249.102 569.337 249.256 570.004 249.564C570.672 249.872 571.219 250.304 571.645 250.858C572.071 251.413 572.336 252.06 572.438 252.799H570.621C570.482 252.26 570.174 251.783 569.696 251.367C569.224 250.946 568.587 250.735 567.786 250.735C567.078 250.735 566.456 250.92 565.922 251.29C565.393 251.654 564.98 252.17 564.682 252.838C564.389 253.5 564.243 254.278 564.243 255.172C564.243 256.086 564.387 256.882 564.674 257.559C564.967 258.237 565.378 258.764 565.907 259.138C566.441 259.513 567.067 259.701 567.786 259.701C568.259 259.701 568.687 259.618 569.072 259.454C569.458 259.29 569.784 259.054 570.051 258.746C570.318 258.437 570.508 258.068 570.621 257.636H572.438C572.336 258.335 572.082 258.964 571.676 259.523C571.275 260.078 570.744 260.52 570.081 260.848C569.424 261.172 568.659 261.334 567.786 261.334ZM580.336 261.334C579.268 261.334 578.331 261.079 577.524 260.571C576.723 260.063 576.097 259.351 575.645 258.437C575.198 257.523 574.975 256.455 574.975 255.233C574.975 254.001 575.198 252.925 575.645 252.006C576.097 251.087 576.723 250.373 577.524 249.865C578.331 249.356 579.268 249.102 580.336 249.102C581.404 249.102 582.338 249.356 583.139 249.865C583.946 250.373 584.572 251.087 585.019 252.006C585.471 252.925 585.697 254.001 585.697 255.233C585.697 256.455 585.471 257.523 585.019 258.437C584.572 259.351 583.946 260.063 583.139 260.571C582.338 261.079 581.404 261.334 580.336 261.334ZM580.336 259.701C581.147 259.701 581.815 259.493 582.338 259.077C582.862 258.661 583.25 258.114 583.502 257.436C583.753 256.758 583.879 256.024 583.879 255.233C583.879 254.442 583.753 253.706 583.502 253.023C583.25 252.34 582.862 251.788 582.338 251.367C581.815 250.946 581.147 250.735 580.336 250.735C579.525 250.735 578.857 250.946 578.333 251.367C577.809 251.788 577.422 252.34 577.17 253.023C576.919 253.706 576.793 254.442 576.793 255.233C576.793 256.024 576.919 256.758 577.17 257.436C577.422 258.114 577.809 258.661 578.333 259.077C578.857 259.493 579.525 259.701 580.336 259.701ZM588.905 261.087V249.256H590.661V251.105H590.815C591.062 250.473 591.46 249.983 592.009 249.634C592.559 249.279 593.219 249.102 593.989 249.102C594.769 249.102 595.419 249.279 595.938 249.634C596.461 249.983 596.87 250.473 597.162 251.105H597.285C597.588 250.494 598.043 250.008 598.649 249.649C599.255 249.284 599.981 249.102 600.829 249.102C601.886 249.102 602.752 249.433 603.424 250.096C604.097 250.753 604.433 251.777 604.433 253.169V261.087H602.616V253.169C602.616 252.296 602.377 251.672 601.899 251.297C601.422 250.922 600.859 250.735 600.212 250.735C599.381 250.735 598.736 250.987 598.279 251.49C597.822 251.988 597.594 252.62 597.594 253.385V261.087H595.745V252.984C595.745 252.311 595.527 251.77 595.09 251.359C594.654 250.943 594.092 250.735 593.403 250.735C592.931 250.735 592.489 250.861 592.079 251.112C591.673 251.364 591.344 251.713 591.093 252.16C590.846 252.602 590.723 253.113 590.723 253.693V261.087H588.905ZM608.191 265.524V249.256H609.947V251.136H610.162C610.296 250.93 610.481 250.668 610.717 250.35C610.958 250.026 611.302 249.739 611.749 249.487C612.201 249.231 612.812 249.102 613.582 249.102C614.579 249.102 615.457 249.351 616.217 249.849C616.977 250.347 617.57 251.053 617.996 251.967C618.422 252.881 618.635 253.96 618.635 255.202C618.635 256.455 618.422 257.541 617.996 258.461C617.57 259.375 616.979 260.083 616.224 260.586C615.469 261.084 614.599 261.334 613.613 261.334C612.853 261.334 612.245 261.208 611.788 260.956C611.331 260.699 610.979 260.409 610.732 260.086C610.486 259.757 610.296 259.485 610.162 259.269H610.008V265.524H608.191ZM609.978 255.172C609.978 256.065 610.109 256.853 610.37 257.536C610.632 258.214 611.015 258.746 611.518 259.131C612.021 259.511 612.638 259.701 613.367 259.701C614.127 259.701 614.761 259.5 615.269 259.1C615.783 258.694 616.168 258.15 616.425 257.467C616.686 256.779 616.817 256.014 616.817 255.172C616.817 254.34 616.689 253.59 616.432 252.923C616.181 252.25 615.798 251.718 615.285 251.328C614.776 250.933 614.137 250.735 613.367 250.735C612.627 250.735 612.006 250.922 611.503 251.297C610.999 251.667 610.619 252.186 610.363 252.853C610.106 253.516 609.978 254.288 609.978 255.172ZM623.66 245.313V261.087H621.842V245.313H623.66ZM632.383 261.334C631.243 261.334 630.26 261.082 629.433 260.579C628.611 260.07 627.977 259.362 627.531 258.453C627.089 257.539 626.868 256.476 626.868 255.264C626.868 254.052 627.089 252.984 627.531 252.06C627.977 251.13 628.599 250.406 629.394 249.888C630.196 249.364 631.13 249.102 632.198 249.102C632.814 249.102 633.423 249.205 634.024 249.41C634.624 249.616 635.171 249.949 635.664 250.412C636.157 250.869 636.55 251.474 636.843 252.229C637.135 252.984 637.282 253.914 637.282 255.018V255.788H628.162V254.217H635.433C635.433 253.549 635.3 252.953 635.033 252.43C634.771 251.906 634.396 251.492 633.908 251.189C633.425 250.887 632.855 250.735 632.198 250.735C631.474 250.735 630.848 250.915 630.319 251.274C629.795 251.629 629.392 252.091 629.11 252.661C628.827 253.231 628.686 253.842 628.686 254.494V255.541C628.686 256.435 628.84 257.192 629.148 257.814C629.461 258.43 629.895 258.9 630.45 259.223C631.004 259.541 631.649 259.701 632.383 259.701C632.861 259.701 633.292 259.634 633.677 259.5C634.067 259.362 634.404 259.156 634.686 258.884C634.968 258.607 635.187 258.263 635.341 257.852L637.097 258.345C636.912 258.941 636.601 259.464 636.165 259.916C635.728 260.363 635.189 260.712 634.547 260.964C633.906 261.21 633.184 261.334 632.383 261.334ZM645.626 249.256V250.797H639.495V249.256H645.626ZM641.282 246.422H643.1V257.698C643.1 258.212 643.174 258.597 643.323 258.853C643.477 259.105 643.672 259.274 643.908 259.362C644.15 259.444 644.404 259.485 644.671 259.485C644.871 259.485 645.035 259.475 645.164 259.454C645.292 259.428 645.395 259.408 645.472 259.393L645.842 261.025C645.718 261.072 645.546 261.118 645.326 261.164C645.105 261.215 644.825 261.241 644.486 261.241C643.972 261.241 643.469 261.131 642.976 260.91C642.488 260.689 642.083 260.353 641.759 259.901C641.441 259.449 641.282 258.879 641.282 258.191V246.422ZM653.627 261.334C652.487 261.334 651.504 261.082 650.677 260.579C649.856 260.07 649.222 259.362 648.775 258.453C648.333 257.539 648.112 256.476 648.112 255.264C648.112 254.052 648.333 252.984 648.775 252.06C649.222 251.13 649.843 250.406 650.639 249.888C651.44 249.364 652.374 249.102 653.442 249.102C654.059 249.102 654.667 249.205 655.268 249.41C655.869 249.616 656.416 249.949 656.909 250.412C657.402 250.869 657.794 251.474 658.087 252.229C658.38 252.984 658.526 253.914 658.526 255.018V255.788H649.406V254.217H656.677C656.677 253.549 656.544 252.953 656.277 252.43C656.015 251.906 655.64 251.492 655.152 251.189C654.67 250.887 654.1 250.735 653.442 250.735C652.718 250.735 652.092 250.915 651.563 251.274C651.039 251.629 650.636 252.091 650.354 252.661C650.071 253.231 649.93 253.842 649.93 254.494V255.541C649.93 256.435 650.084 257.192 650.392 257.814C650.706 258.43 651.139 258.9 651.694 259.223C652.249 259.541 652.893 259.701 653.627 259.701C654.105 259.701 654.536 259.634 654.921 259.5C655.312 259.362 655.648 259.156 655.93 258.884C656.213 258.607 656.431 258.263 656.585 257.852L658.341 258.345C658.156 258.941 657.846 259.464 657.409 259.916C656.973 260.363 656.434 260.712 655.792 260.964C655.15 261.21 654.428 261.334 653.627 261.334ZM663.05 261.21C662.67 261.21 662.344 261.074 662.072 260.802C661.799 260.53 661.663 260.204 661.663 259.824C661.663 259.444 661.799 259.118 662.072 258.846C662.344 258.574 662.67 258.437 663.05 258.437C663.43 258.437 663.756 258.574 664.028 258.846C664.3 259.118 664.436 259.444 664.436 259.824C664.436 260.075 664.372 260.307 664.244 260.517C664.12 260.728 663.954 260.897 663.743 261.025C663.538 261.149 663.307 261.21 663.05 261.21Z" fill="black"/>
<path d="M200.914 166.933L207.072 185.557H207.315L213.461 166.933H218.175L209.833 190.594H204.542L196.212 166.933H200.914ZM228.358 190.941C226.579 190.941 225.042 190.571 223.748 189.832C222.462 189.085 221.472 188.029 220.779 186.666C220.086 185.295 219.739 183.681 219.739 181.825C219.739 180 220.086 178.398 220.779 177.019C221.48 175.633 222.458 174.554 223.714 173.784C224.969 173.006 226.444 172.617 228.139 172.617C229.232 172.617 230.265 172.794 231.235 173.148C232.213 173.495 233.076 174.034 233.823 174.766C234.578 175.498 235.171 176.43 235.602 177.562C236.034 178.686 236.249 180.027 236.249 181.583V182.865H221.703V180.046H232.24C232.233 179.245 232.059 178.532 231.72 177.909C231.381 177.277 230.908 176.78 230.299 176.418C229.698 176.056 228.998 175.875 228.196 175.875C227.342 175.875 226.591 176.083 225.944 176.499C225.297 176.907 224.792 177.446 224.43 178.117C224.076 178.779 223.895 179.507 223.887 180.3V182.761C223.887 183.793 224.076 184.679 224.453 185.418C224.831 186.15 225.358 186.712 226.036 187.105C226.714 187.49 227.507 187.683 228.416 187.683C229.025 187.683 229.575 187.598 230.068 187.429C230.561 187.252 230.989 186.994 231.351 186.655C231.713 186.316 231.986 185.896 232.171 185.395L236.076 185.834C235.83 186.866 235.36 187.768 234.667 188.538C233.981 189.3 233.103 189.893 232.032 190.317C230.962 190.733 229.737 190.941 228.358 190.941ZM241.089 190.594V172.848H245.144V175.806H245.329C245.653 174.781 246.207 173.992 246.993 173.437C247.786 172.875 248.691 172.594 249.708 172.594C249.939 172.594 250.197 172.605 250.482 172.629C250.775 172.644 251.017 172.671 251.21 172.709V176.557C251.033 176.495 250.752 176.441 250.367 176.395C249.989 176.341 249.623 176.314 249.269 176.314C248.506 176.314 247.821 176.48 247.212 176.811C246.612 177.134 246.138 177.585 245.791 178.163C245.445 178.74 245.271 179.407 245.271 180.162V190.594H241.089ZM255.29 190.594V172.848H259.472V190.594H255.29ZM257.393 170.329C256.73 170.329 256.16 170.11 255.683 169.671C255.205 169.224 254.966 168.689 254.966 168.065C254.966 167.433 255.205 166.898 255.683 166.459C256.16 166.012 256.73 165.789 257.393 165.789C258.063 165.789 258.633 166.012 259.103 166.459C259.58 166.898 259.819 167.433 259.819 168.065C259.819 168.689 259.58 169.224 259.103 169.671C258.633 170.11 258.063 170.329 257.393 170.329ZM274.063 172.848V176.083H263.573V172.848H274.063ZM266.195 190.594V171.173C266.195 169.979 266.442 168.985 266.935 168.192C267.435 167.399 268.106 166.806 268.945 166.413C269.785 166.02 270.717 165.824 271.741 165.824C272.465 165.824 273.108 165.881 273.67 165.997C274.233 166.112 274.649 166.216 274.918 166.309L274.086 169.544C273.909 169.49 273.686 169.436 273.416 169.382C273.147 169.32 272.846 169.29 272.515 169.29C271.737 169.29 271.186 169.478 270.863 169.856C270.547 170.225 270.389 170.757 270.389 171.45V190.594H266.195ZM278.64 190.594V172.848H282.823V190.594H278.64ZM280.743 170.329C280.08 170.329 279.511 170.11 279.033 169.671C278.555 169.224 278.317 168.689 278.317 168.065C278.317 167.433 278.555 166.898 279.033 166.459C279.511 166.012 280.08 165.789 280.743 165.789C281.413 165.789 281.983 166.012 282.453 166.459C282.93 166.898 283.169 167.433 283.169 168.065C283.169 168.689 282.93 169.224 282.453 169.671C281.983 170.11 281.413 170.329 280.743 170.329ZM296.166 190.941C294.394 190.941 292.873 190.552 291.602 189.774C290.339 188.996 289.364 187.922 288.679 186.551C288.001 185.172 287.662 183.585 287.662 181.791C287.662 179.988 288.009 178.398 288.702 177.019C289.395 175.633 290.373 174.554 291.637 173.784C292.908 173.006 294.41 172.617 296.143 172.617C297.583 172.617 298.858 172.883 299.967 173.414C301.084 173.938 301.973 174.681 302.636 175.644C303.298 176.599 303.675 177.716 303.768 178.995H299.77C299.609 178.14 299.224 177.427 298.615 176.857C298.014 176.28 297.209 175.991 296.2 175.991C295.345 175.991 294.594 176.222 293.947 176.684C293.3 177.138 292.796 177.793 292.434 178.648C292.08 179.503 291.902 180.527 291.902 181.721C291.902 182.931 292.08 183.97 292.434 184.841C292.788 185.703 293.285 186.37 293.924 186.839C294.571 187.302 295.33 187.533 296.2 187.533C296.817 187.533 297.367 187.417 297.852 187.186C298.345 186.947 298.758 186.605 299.089 186.158C299.42 185.711 299.647 185.168 299.77 184.529H303.768C303.668 185.784 303.298 186.897 302.659 187.868C302.019 188.831 301.149 189.585 300.048 190.132C298.946 190.671 297.652 190.941 296.166 190.941ZM313.61 190.953C312.486 190.953 311.473 190.752 310.572 190.352C309.678 189.944 308.97 189.343 308.446 188.549C307.93 187.756 307.672 186.778 307.672 185.615C307.672 184.613 307.857 183.785 308.226 183.131C308.596 182.476 309.101 181.952 309.74 181.559C310.379 181.167 311.099 180.87 311.9 180.67C312.709 180.462 313.545 180.312 314.407 180.219C315.447 180.111 316.291 180.015 316.938 179.93C317.585 179.838 318.055 179.699 318.347 179.515C318.648 179.322 318.798 179.025 318.798 178.625V178.556C318.798 177.685 318.54 177.011 318.024 176.534C317.508 176.056 316.764 175.817 315.794 175.817C314.769 175.817 313.957 176.041 313.356 176.487C312.763 176.934 312.362 177.462 312.155 178.07L308.249 177.516C308.558 176.437 309.066 175.536 309.774 174.812C310.483 174.08 311.35 173.534 312.374 173.172C313.398 172.802 314.531 172.617 315.771 172.617C316.626 172.617 317.477 172.717 318.324 172.917C319.171 173.118 319.945 173.449 320.646 173.911C321.347 174.365 321.91 174.985 322.333 175.771C322.765 176.557 322.98 177.539 322.98 178.717V190.594H318.96V188.157H318.821C318.567 188.65 318.209 189.112 317.746 189.543C317.292 189.967 316.718 190.309 316.025 190.571C315.339 190.825 314.535 190.953 313.61 190.953ZM314.696 187.879C315.536 187.879 316.264 187.714 316.88 187.382C317.496 187.044 317.97 186.597 318.301 186.042C318.64 185.488 318.809 184.883 318.809 184.228V182.137C318.678 182.245 318.455 182.345 318.139 182.438C317.831 182.53 317.485 182.611 317.099 182.68C316.714 182.75 316.333 182.811 315.956 182.865C315.578 182.919 315.251 182.965 314.974 183.004C314.35 183.088 313.791 183.227 313.298 183.42C312.805 183.612 312.416 183.882 312.131 184.228C311.846 184.567 311.704 185.006 311.704 185.545C311.704 186.316 311.985 186.897 312.547 187.29C313.11 187.683 313.826 187.879 314.696 187.879ZM337.349 172.848V176.083H327.147V172.848H337.349ZM329.666 168.596H333.848V185.257C333.848 185.819 333.933 186.25 334.102 186.551C334.279 186.843 334.51 187.044 334.795 187.151C335.08 187.259 335.396 187.313 335.743 187.313C336.005 187.313 336.243 187.294 336.459 187.255C336.682 187.217 336.852 187.182 336.967 187.151L337.672 190.421C337.449 190.498 337.129 190.583 336.713 190.675C336.305 190.768 335.804 190.822 335.211 190.837C334.164 190.868 333.22 190.71 332.381 190.363C331.541 190.009 330.875 189.462 330.382 188.723C329.897 187.983 329.658 187.059 329.666 185.95V168.596ZM342.148 190.594V172.848H346.33V190.594H342.148ZM344.251 170.329C343.588 170.329 343.018 170.11 342.541 169.671C342.063 169.224 341.824 168.689 341.824 168.065C341.824 167.433 342.063 166.898 342.541 166.459C343.018 166.012 343.588 165.789 344.251 165.789C344.921 165.789 345.491 166.012 345.961 166.459C346.438 166.898 346.677 167.433 346.677 168.065C346.677 168.689 346.438 169.224 345.961 169.671C345.491 170.11 344.921 170.329 344.251 170.329ZM359.673 190.941C357.94 190.941 356.438 190.56 355.168 189.797C353.897 189.035 352.911 187.968 352.21 186.597C351.517 185.226 351.17 183.624 351.17 181.791C351.17 179.957 351.517 178.351 352.21 176.973C352.911 175.594 353.897 174.523 355.168 173.761C356.438 172.998 357.94 172.617 359.673 172.617C361.407 172.617 362.909 172.998 364.179 173.761C365.45 174.523 366.432 175.594 367.126 176.973C367.826 178.351 368.177 179.957 368.177 181.791C368.177 183.624 367.826 185.226 367.126 186.597C366.432 187.968 365.45 189.035 364.179 189.797C362.909 190.56 361.407 190.941 359.673 190.941ZM359.697 187.59C360.636 187.59 361.422 187.332 362.054 186.816C362.685 186.293 363.155 185.592 363.463 184.714C363.779 183.836 363.937 182.857 363.937 181.779C363.937 180.693 363.779 179.711 363.463 178.833C363.155 177.947 362.685 177.242 362.054 176.719C361.422 176.195 360.636 175.933 359.697 175.933C358.734 175.933 357.933 176.195 357.293 176.719C356.662 177.242 356.188 177.947 355.872 178.833C355.564 179.711 355.41 180.693 355.41 181.779C355.41 182.857 355.564 183.836 355.872 184.714C356.188 185.592 356.662 186.293 357.293 186.816C357.933 187.332 358.734 187.59 359.697 187.59ZM377.211 180.196V190.594H373.028V172.848H377.026V175.864H377.234C377.642 174.87 378.293 174.08 379.186 173.495C380.087 172.91 381.2 172.617 382.525 172.617C383.75 172.617 384.817 172.879 385.726 173.403C386.642 173.926 387.351 174.685 387.851 175.679C388.36 176.672 388.61 177.878 388.602 179.295V190.594H384.42V179.942C384.42 178.756 384.112 177.828 383.496 177.158C382.887 176.487 382.044 176.152 380.965 176.152C380.234 176.152 379.583 176.314 379.013 176.638C378.451 176.953 378.008 177.412 377.684 178.013C377.368 178.613 377.211 179.341 377.211 180.196ZM407.998 166.933V190.594H403.712V166.933H407.998ZM417.939 180.196V190.594H413.757V172.848H417.754V175.864H417.962C418.37 174.87 419.021 174.08 419.915 173.495C420.816 172.91 421.929 172.617 423.254 172.617C424.478 172.617 425.545 172.879 426.454 173.403C427.37 173.926 428.079 174.685 428.58 175.679C429.088 176.672 429.338 177.878 429.331 179.295V190.594H425.148V179.942C425.148 178.756 424.84 177.828 424.224 177.158C423.616 176.487 422.772 176.152 421.694 176.152C420.962 176.152 420.311 176.314 419.741 176.638C419.179 176.953 418.736 177.412 418.413 178.013C418.097 178.613 417.939 179.341 417.939 180.196ZM444.44 190.594V166.933H453.313C455.131 166.933 456.656 167.272 457.889 167.949C459.129 168.627 460.065 169.559 460.696 170.745C461.335 171.924 461.655 173.264 461.655 174.766C461.655 176.283 461.335 177.631 460.696 178.81C460.057 179.988 459.113 180.916 457.866 181.594C456.618 182.264 455.081 182.599 453.256 182.599H447.375V179.075H452.678C453.741 179.075 454.611 178.891 455.289 178.521C455.967 178.151 456.468 177.643 456.791 176.996C457.122 176.349 457.288 175.606 457.288 174.766C457.288 173.926 457.122 173.187 456.791 172.548C456.468 171.908 455.963 171.412 455.278 171.057C454.6 170.695 453.725 170.514 452.655 170.514H448.727V190.594H444.44ZM466.495 190.594V172.848H470.55V175.806H470.735C471.058 174.781 471.613 173.992 472.399 173.437C473.192 172.875 474.097 172.594 475.114 172.594C475.345 172.594 475.603 172.605 475.888 172.629C476.181 172.644 476.423 172.671 476.616 172.709V176.557C476.439 176.495 476.157 176.441 475.772 176.395C475.395 176.341 475.029 176.314 474.675 176.314C473.912 176.314 473.227 176.48 472.618 176.811C472.017 177.134 471.544 177.585 471.197 178.163C470.85 178.74 470.677 179.407 470.677 180.162V190.594H466.495ZM487.706 190.941C485.973 190.941 484.471 190.56 483.2 189.797C481.929 189.035 480.943 187.968 480.242 186.597C479.549 185.226 479.202 183.624 479.202 181.791C479.202 179.957 479.549 178.351 480.242 176.973C480.943 175.594 481.929 174.523 483.2 173.761C484.471 172.998 485.973 172.617 487.706 172.617C489.439 172.617 490.941 172.998 492.212 173.761C493.483 174.523 494.465 175.594 495.158 176.973C495.859 178.351 496.209 179.957 496.209 181.791C496.209 183.624 495.859 185.226 495.158 186.597C494.465 187.968 493.483 189.035 492.212 189.797C490.941 190.56 489.439 190.941 487.706 190.941ZM487.729 187.59C488.669 187.59 489.454 187.332 490.086 186.816C490.718 186.293 491.187 185.592 491.495 184.714C491.811 183.836 491.969 182.857 491.969 181.779C491.969 180.693 491.811 179.711 491.495 178.833C491.187 177.947 490.718 177.242 490.086 176.719C489.454 176.195 488.669 175.933 487.729 175.933C486.766 175.933 485.965 176.195 485.326 176.719C484.694 177.242 484.221 177.947 483.905 178.833C483.597 179.711 483.443 180.693 483.443 181.779C483.443 182.857 483.597 183.836 483.905 184.714C484.221 185.592 484.694 186.293 485.326 186.816C485.965 187.332 486.766 187.59 487.729 187.59ZM508.778 197.619C507.276 197.619 505.986 197.415 504.908 197.007C503.83 196.606 502.963 196.067 502.308 195.389C501.654 194.711 501.199 193.96 500.945 193.136L504.712 192.223C504.881 192.57 505.127 192.913 505.451 193.252C505.774 193.598 506.21 193.883 506.757 194.107C507.311 194.338 508.008 194.453 508.848 194.453C510.034 194.453 511.016 194.164 511.794 193.587C512.572 193.017 512.961 192.077 512.961 190.768V187.406H512.753C512.537 187.837 512.221 188.28 511.805 188.734C511.397 189.189 510.854 189.57 510.176 189.878C509.506 190.186 508.663 190.34 507.646 190.34C506.283 190.34 505.047 190.021 503.937 189.381C502.836 188.734 501.958 187.771 501.303 186.493C500.656 185.207 500.333 183.597 500.333 181.663C500.333 179.715 500.656 178.07 501.303 176.73C501.958 175.382 502.84 174.362 503.949 173.668C505.058 172.967 506.294 172.617 507.658 172.617C508.698 172.617 509.552 172.794 510.223 173.148C510.9 173.495 511.44 173.915 511.84 174.408C512.241 174.893 512.545 175.351 512.753 175.783H512.984V172.848H517.109V190.883C517.109 192.401 516.747 193.656 516.022 194.65C515.298 195.643 514.309 196.387 513.053 196.88C511.798 197.372 510.373 197.619 508.778 197.619ZM508.813 187.059C509.699 187.059 510.454 186.843 511.078 186.412C511.701 185.981 512.175 185.361 512.499 184.552C512.822 183.743 512.984 182.773 512.984 181.64C512.984 180.524 512.822 179.545 512.499 178.706C512.183 177.866 511.713 177.215 511.089 176.753C510.473 176.283 509.714 176.048 508.813 176.048C507.881 176.048 507.103 176.291 506.479 176.776C505.855 177.262 505.385 177.928 505.07 178.775C504.754 179.615 504.596 180.57 504.596 181.64C504.596 182.726 504.754 183.678 505.07 184.494C505.393 185.303 505.867 185.934 506.491 186.389C507.122 186.836 507.896 187.059 508.813 187.059ZM522.696 190.594V172.848H526.752V175.806H526.936C527.26 174.781 527.815 173.992 528.6 173.437C529.393 172.875 530.299 172.594 531.315 172.594C531.546 172.594 531.804 172.605 532.089 172.629C532.382 172.644 532.625 172.671 532.817 172.709V176.557C532.64 176.495 532.359 176.441 531.974 176.395C531.596 176.341 531.231 176.314 530.876 176.314C530.114 176.314 529.428 176.48 528.82 176.811C528.219 177.134 527.745 177.585 527.399 178.163C527.052 178.74 526.879 179.407 526.879 180.162V190.594H522.696ZM544.023 190.941C542.244 190.941 540.707 190.571 539.413 189.832C538.127 189.085 537.137 188.029 536.444 186.666C535.751 185.295 535.404 183.681 535.404 181.825C535.404 180 535.751 178.398 536.444 177.019C537.145 175.633 538.123 174.554 539.378 173.784C540.634 173.006 542.109 172.617 543.803 172.617C544.897 172.617 545.929 172.794 546.9 173.148C547.878 173.495 548.741 174.034 549.488 174.766C550.243 175.498 550.836 176.43 551.267 177.562C551.698 178.686 551.914 180.027 551.914 181.583V182.865H537.368V180.046H547.905C547.897 179.245 547.724 178.532 547.385 177.909C547.046 177.277 546.572 176.78 545.964 176.418C545.363 176.056 544.662 175.875 543.861 175.875C543.006 175.875 542.255 176.083 541.608 176.499C540.961 176.907 540.457 177.446 540.095 178.117C539.74 178.779 539.559 179.507 539.552 180.3V182.761C539.552 183.793 539.74 184.679 540.118 185.418C540.495 186.15 541.023 186.712 541.701 187.105C542.378 187.49 543.172 187.683 544.081 187.683C544.689 187.683 545.24 187.598 545.733 187.429C546.226 187.252 546.653 186.994 547.015 186.655C547.377 186.316 547.651 185.896 547.836 185.395L551.741 185.834C551.494 186.866 551.024 187.768 550.331 188.538C549.646 189.3 548.768 189.893 547.697 190.317C546.626 190.733 545.402 190.941 544.023 190.941ZM570.78 177.539L566.967 177.955C566.859 177.57 566.671 177.208 566.401 176.869C566.139 176.53 565.785 176.256 565.338 176.048C564.891 175.84 564.344 175.736 563.697 175.736C562.827 175.736 562.095 175.925 561.502 176.303C560.917 176.68 560.628 177.169 560.636 177.77C560.628 178.286 560.817 178.706 561.202 179.029C561.595 179.353 562.242 179.618 563.143 179.826L566.17 180.473C567.849 180.835 569.097 181.409 569.913 182.195C570.737 182.981 571.153 184.009 571.161 185.28C571.153 186.397 570.826 187.382 570.179 188.237C569.54 189.085 568.65 189.747 567.51 190.225C566.37 190.702 565.061 190.941 563.582 190.941C561.41 190.941 559.661 190.487 558.337 189.578C557.012 188.661 556.222 187.386 555.968 185.753L560.046 185.361C560.231 186.162 560.624 186.766 561.225 187.175C561.826 187.583 562.608 187.787 563.57 187.787C564.564 187.787 565.361 187.583 565.962 187.175C566.57 186.766 566.875 186.262 566.875 185.661C566.875 185.153 566.678 184.733 566.285 184.402C565.9 184.07 565.3 183.816 564.483 183.639L561.456 183.004C559.754 182.649 558.494 182.052 557.678 181.213C556.862 180.366 556.457 179.295 556.465 178.001C556.457 176.907 556.754 175.96 557.354 175.159C557.963 174.35 558.806 173.726 559.885 173.287C560.971 172.84 562.222 172.617 563.64 172.617C565.719 172.617 567.356 173.06 568.55 173.946C569.751 174.831 570.495 176.029 570.78 177.539ZM589.937 177.539L586.125 177.955C586.017 177.57 585.828 177.208 585.558 176.869C585.297 176.53 584.942 176.256 584.495 176.048C584.049 175.84 583.502 175.736 582.855 175.736C581.985 175.736 581.253 175.925 580.66 176.303C580.074 176.68 579.785 177.169 579.793 177.77C579.785 178.286 579.974 178.706 580.359 179.029C580.752 179.353 581.399 179.618 582.3 179.826L585.327 180.473C587.006 180.835 588.254 181.409 589.071 182.195C589.895 182.981 590.311 184.009 590.318 185.28C590.311 186.397 589.983 187.382 589.336 188.237C588.697 189.085 587.808 189.747 586.668 190.225C585.528 190.702 584.218 190.941 582.739 190.941C580.567 190.941 578.819 190.487 577.494 189.578C576.169 188.661 575.38 187.386 575.126 185.753L579.204 185.361C579.389 186.162 579.782 186.766 580.382 187.175C580.983 187.583 581.765 187.787 582.728 187.787C583.721 187.787 584.519 187.583 585.119 187.175C585.728 186.766 586.032 186.262 586.032 185.661C586.032 185.153 585.836 184.733 585.443 184.402C585.058 184.07 584.457 183.816 583.641 183.639L580.613 183.004C578.911 182.649 577.652 182.052 576.835 181.213C576.019 180.366 575.615 179.295 575.622 178.001C575.615 176.907 575.911 175.96 576.512 175.159C577.12 174.35 577.964 173.726 579.042 173.287C580.128 172.84 581.38 172.617 582.797 172.617C584.877 172.617 586.514 173.06 587.707 173.946C588.909 174.831 589.652 176.029 589.937 177.539Z" fill="black"/>
<path d="M393.519 69.7223C416.625 69.7223 435.356 63.4786 435.356 55.7765C435.356 48.0745 416.625 41.8307 393.519 41.8307C370.413 41.8307 351.682 48.0745 351.682 55.7765C351.682 63.4786 370.413 69.7223 393.519 69.7223Z" stroke="black" stroke-width="9.2972" stroke-linecap="round" stroke-linejoin="round"/>
<path d="M351.682 88.318C351.675 90.9173 353.848 93.4655 357.955 95.675C362.062 97.8845 367.939 99.6675 374.925 100.823" stroke="black" stroke-width="9.2972" stroke-linecap="round" stroke-linejoin="round"/>
<path d="M435.354 75.766V55.777" stroke="black" stroke-width="9.2972" stroke-linecap="round" stroke-linejoin="round"/>
<path d="M351.682 55.777V120.857C351.679 123.873 354.608 126.807 360.031 129.221C365.453 131.635 373.076 133.398 381.758 134.245" stroke="black" stroke-width="9.2972" stroke-linecap="round" stroke-linejoin="round"/>
<path d="M393.518 88.318V106.912H412.112" stroke="#FFA200" stroke-width="9.2972" stroke-linecap="round" stroke-linejoin="round"/>
<path d="M398.166 125.507C401.093 129.409 405.174 132.292 409.83 133.747C414.487 135.201 419.483 135.154 424.111 133.611C428.739 132.069 432.764 129.109 435.616 125.151C438.469 121.194 440.004 116.439 440.004 111.561C440.004 106.013 437.8 100.692 433.877 96.7692C429.954 92.8462 424.633 90.6422 419.085 90.6422C412.902 90.6422 407.277 93.1525 403.233 97.1968L393.518 106.912" stroke="#FFA200" stroke-width="9.2972" stroke-linecap="round" stroke-linejoin="round"/>
</g>
<defs>
<filter id="filter0_d_917_2571" x="0" y="0.000152588" width="799.429" height="311.016" filterUnits="userSpaceOnUse" color-interpolation-filters="sRGB">
<feFlood flood-opacity="0" result="BackgroundImageFix"/>
<feColorMatrix in="SourceAlpha" type="matrix" values="0 0 0 0 0 0 0 0 0 0 0 0 0 0 0 0 0 0 127 0" result="hardAlpha"/>
<feOffset dx="6.19712" dy="6.19712"/>
<feGaussianBlur stdDeviation="3.09856"/>
<feComposite in2="hardAlpha" operator="out"/>
<feColorMatrix type="matrix" values="0 0 0 0 0 0 0 0 0 0 0 0 0 0 0 0 0 0 0.1 0"/>
<feBlend mode="normal" in2="BackgroundImageFix" result="effect1_dropShadow_917_2571"/>
<feBlend mode="normal" in="SourceGraphic" in2="effect1_dropShadow_917_2571" result="shape"/>
</filter>
<linearGradient id="paint0_linear_917_2571" x1="787.034" y1="-14.3344" x2="403.935" y2="561.559" gradientUnits="userSpaceOnUse">
<stop stop-color="#A0C3FD"/>
<stop offset="1" stop-color="#FFE79C"/>
</linearGradient>
</defs>
</svg>
